<svg width="17" height="14" viewBox="0 0 17 14" fill="none" xmlns="http://www.w3.org/2000/svg">
<g id="Frame 1171275899">
<path id="Vector" d="M9.85993 13.6486L16.2666 7.20863L9.85993 0.768632C9.80207 0.69265 9.72856 0.629986 9.64438 0.584884C9.5602 0.539782 9.4673 0.513293 9.37199 0.507212C9.27668 0.501131 9.18118 0.515599 9.09194 0.549637C9.00271 0.583675 8.92183 0.636488 8.85478 0.704501C8.78774 0.772513 8.73608 0.854138 8.70332 0.943848C8.67056 1.03356 8.65746 1.12926 8.6649 1.22447C8.67235 1.31969 8.70016 1.41219 8.74646 1.49572C8.79276 1.57925 8.85647 1.65186 8.93327 1.70863L13.7266 6.54197H0.973268C0.796456 6.54197 0.626888 6.6122 0.501863 6.73723C0.37684 6.86225 0.306601 7.03182 0.306601 7.20863C0.306601 7.38544 0.37684 7.55501 0.501863 7.68004C0.626888 7.80506 0.796456 7.8753 0.973268 7.8753H13.7266L8.93327 12.7086C8.80862 12.8342 8.73894 13.0041 8.73956 13.181C8.74019 13.3579 8.81107 13.5273 8.9366 13.652C9.06214 13.7766 9.23205 13.8463 9.40896 13.8457C9.58587 13.845 9.75528 13.7742 9.87993 13.6486H9.85993Z" fill="#929292"/>
</g>
</svg>
