<svg width="64" height="66" viewBox="0 0 64 66" fill="none" xmlns="http://www.w3.org/2000/svg">
<path id="Vector" d="M59.5971 65.0393L50.3194 55.7617V62.7592H44.0295V44.9902H61.7985V51.2801H54.7224L64 60.5577L59.5971 65.0393ZM31.4496 63.86C27.0991 63.86 23.0107 63.0339 19.1843 61.3817C15.3579 59.7296 12.0295 57.4893 9.19902 54.6609C6.36855 51.8326 4.12829 48.5041 2.47824 44.6757C0.828178 40.8472 0.00210062 36.7588 3.98096e-06 32.4103C-0.00209266 28.0619 0.823984 23.9734 2.47824 20.145C4.13249 16.3165 6.37275 12.9881 9.19902 10.1597C12.0253 7.33134 15.3537 5.09108 19.1843 3.43892C23.0148 1.78677 27.1033 0.960693 31.4496 0.960693C35.796 0.960693 39.8844 1.78677 43.715 3.43892C47.5456 5.09108 50.874 7.33134 53.7002 10.1597C56.5265 12.9881 58.7678 16.3165 60.4242 20.145C62.0805 23.9734 62.9056 28.0619 62.8993 32.4103C62.8993 33.4586 62.8468 34.507 62.742 35.5553C62.6372 36.6036 62.4799 37.6519 62.2703 38.7002H55.8231C56.0852 37.6519 56.2823 36.6036 56.4143 35.5553C56.5464 34.507 56.6114 33.4586 56.6093 32.4103C56.6072 31.362 56.5422 30.3137 56.4143 29.2654C56.2865 28.217 56.0894 27.1687 55.8231 26.1204H45.1302C45.2875 27.1687 45.4059 28.217 45.4856 29.2654C45.5653 30.3137 45.6041 31.362 45.602 32.4103C45.5999 33.4586 45.5611 34.507 45.4856 35.5553C45.4101 36.6036 45.2917 37.6519 45.1302 38.7002H38.8403C38.9975 37.6519 39.116 36.6036 39.1957 35.5553C39.2753 34.507 39.3141 33.4586 39.312 32.4103C39.3099 31.362 39.2712 30.3137 39.1957 29.2654C39.1202 28.217 39.0017 27.1687 38.8403 26.1204H24.059C23.9017 27.1687 23.7843 28.217 23.7067 29.2654C23.6292 30.3137 23.5893 31.362 23.5872 32.4103C23.5851 33.4586 23.625 34.507 23.7067 35.5553C23.7885 36.6036 23.9059 37.6519 24.059 38.7002H34.5946V44.9902H25.4742C26.1032 47.2441 26.9156 49.4067 27.9115 51.4782C28.9075 53.5497 30.0868 55.5279 31.4496 57.4128C32.498 57.4128 33.5463 57.3478 34.5946 57.2178C35.6429 57.0878 36.6912 56.9693 37.7396 56.8624V63.3096C36.6912 63.4144 35.6429 63.5329 34.5946 63.665C33.5463 63.7971 32.498 63.862 31.4496 63.86ZM7.07617 38.7002H17.769C17.6118 37.6519 17.4944 36.6036 17.4168 35.5553C17.3392 34.507 17.2994 33.4586 17.2973 32.4103C17.2952 31.362 17.335 30.3137 17.4168 29.2654C17.4986 28.217 17.616 27.1687 17.769 26.1204H7.07617C6.81409 27.1687 6.61805 28.217 6.48806 29.2654C6.35807 30.3137 6.29203 31.362 6.28993 32.4103C6.28783 33.4586 6.35388 34.507 6.48806 35.5553C6.62225 36.6036 6.81828 37.6519 7.07617 38.7002ZM9.74939 19.8305H19.027C19.4988 17.8911 20.089 15.9915 20.7976 14.1318C21.5063 12.2721 22.3313 10.4501 23.2727 8.66585C20.3898 9.60934 17.7953 11.0382 15.4889 12.9524C13.1826 14.8667 11.2695 17.1593 9.74939 19.8305ZM23.2727 56.1548C22.3292 54.3726 21.5032 52.5517 20.7945 50.692C20.0858 48.8323 19.4967 46.9317 19.027 44.9902H9.74939C11.2695 47.6634 13.1826 49.9571 15.4889 51.8714C17.7953 53.7856 20.3898 55.2134 23.2727 56.1548ZM25.4742 19.8305H37.4251C36.7961 17.5766 35.9836 15.4149 34.9877 13.3456C33.9918 11.2762 32.8124 9.29694 31.4496 7.40787C30.0868 9.29485 28.9075 11.2741 27.9115 13.3456C26.9156 15.417 26.1032 17.5787 25.4742 19.8305ZM43.8722 19.8305H53.1499C51.6298 17.1573 49.7166 14.8646 47.4103 12.9524C45.104 11.0403 42.5094 9.61144 39.6265 8.66585C40.57 10.448 41.3961 12.27 42.1048 14.1318C42.8134 15.9936 43.4026 17.8932 43.8722 19.8305Z" fill="#002D57"/>
</svg>
