<svg width="64" height="79" viewBox="0 0 64 79" fill="none" xmlns="http://www.w3.org/2000/svg">
<path id="Vector" d="M26.1344 51.8557L26.1152 51.8102C25.7289 51.7175 25.3448 51.6156 24.9632 51.5047L24.9344 51.495C21.2841 50.4292 17.9131 48.5519 15.0656 45.9991C11.934 43.1933 9.52582 39.6521 8.05091 35.6842C6.57599 31.7162 6.07917 27.4421 6.60377 23.2344C7.12836 19.0268 8.65844 15.0133 11.0606 11.544C13.4627 8.07474 16.664 5.25495 20.3853 3.33054C24.1066 1.40612 28.2349 0.435507 32.4103 0.503325C36.5857 0.571142 40.6813 1.67533 44.3401 3.71962C47.9989 5.7639 51.1098 8.68621 53.4015 12.2317C55.6932 15.7773 57.0961 19.8384 57.488 24.0609C57.6128 25.4032 56.528 26.4985 55.2 26.4985C53.8752 26.4985 52.816 25.4032 52.6624 24.0642C52.2394 20.3697 50.8635 16.8542 48.6739 13.873C46.4843 10.8918 43.5586 8.55055 40.1925 7.08592C36.8264 5.62129 33.1392 5.08521 29.5037 5.53187C25.8683 5.97853 22.4133 7.3921 19.4882 9.62967C16.563 11.8673 14.2713 14.8495 12.8448 18.275C11.4182 21.7005 10.9074 25.4478 11.3639 29.1381C11.8204 32.8284 13.2281 36.3309 15.4446 39.2915C17.6611 42.2522 20.608 44.566 23.9872 45.9991L24.1152 46.0543C24.7552 46.3208 25.4123 46.5559 26.0864 46.7596C26.6528 45.3695 27.6764 44.2221 28.9826 43.5128C30.2888 42.8035 31.7968 42.5764 33.2495 42.8701C34.7022 43.1638 36.0096 43.9602 36.9488 45.1234C37.888 46.2867 38.4009 47.7448 38.4 49.2491C38.4014 50.743 37.8962 52.1918 36.9693 53.3517C36.0424 54.5116 34.7504 55.3119 33.3107 55.6178C31.8711 55.9238 30.3716 55.7167 29.0646 55.0316C27.7575 54.3464 26.7228 53.2249 26.1344 51.8557ZM22.9792 55.9898C17.2945 54.1942 12.2541 50.7429 8.4832 46.0641C6.14628 46.3421 3.99127 47.482 2.42739 49.2675C0.863522 51.053 -0.00028958 53.3596 7.28212e-08 55.7493V58.0732C7.28212e-08 70.157 13.472 78.5 32 78.5C50.528 78.5 64 69.6987 64 58.0732V55.7493C64 53.1634 62.9886 50.6834 61.1882 48.8548C59.3879 47.0263 56.9461 45.9991 54.4 45.9991H42.736C43.4908 48.5667 43.3289 51.3226 42.2788 53.7809C41.2288 56.2393 39.3579 58.2421 36.996 59.4365C34.6342 60.6308 31.9331 60.94 29.3687 60.3094C26.8044 59.6789 24.5416 58.1491 22.9792 55.9898ZM48 26.4985C48 21.5843 45.856 17.1805 42.4608 14.2001C40.7573 12.7076 38.763 11.5967 36.6081 10.9399C34.4532 10.2832 32.1862 10.0955 29.955 10.3889C27.7238 10.6823 25.5787 11.4504 23.6595 12.6429C21.7404 13.8354 20.0905 15.4256 18.8175 17.3096C17.5444 19.1937 16.6769 21.3292 16.2716 23.5768C15.8662 25.8245 15.9321 28.1336 16.4649 30.3537C16.9978 32.5737 17.9856 34.6546 19.3639 36.4606C20.7423 38.2666 22.4801 39.757 24.464 40.8347C26.5258 38.9297 29.2128 37.874 32 37.8738C34.7883 37.8732 37.4766 38.9289 39.5392 40.8347C42.0957 39.4475 44.2333 37.3811 45.7235 34.8561C47.2136 32.3311 48.0005 29.4423 48 26.4985Z" fill="#002D57"/>
</svg>
