<svg width="723" height="264" viewBox="0 0 723 264" fill="none" xmlns="http://www.w3.org/2000/svg">
<path opacity="0.5" d="M85.8294 120.977L85.722 121.465L85.8294 120.977ZM62.8389 165.856L62.445 166.164L62.8389 165.856ZM141.188 64.2708L141.108 63.7772L141.188 64.2708ZM722.489 1.60397C722.547 1.33387 722.374 1.06835 722.104 1.01093L717.702 0.0751655C717.432 0.0177423 717.167 0.190156 717.109 0.460262C717.052 0.730367 717.224 0.995882 717.494 1.05331L721.407 1.8851L720.575 5.79766C720.518 6.06776 720.69 6.33328 720.96 6.3907C721.23 6.44812 721.496 6.27571 721.553 6.0056L722.489 1.60397ZM1.92936 263.471C1.78259 260.918 1.67033 258.253 1.59747 255.495L0.597817 255.521C0.670942 258.29 0.78363 260.965 0.931009 263.529L1.92936 263.471ZM1.62541 239.451C1.77647 234.259 2.0685 228.891 2.52572 223.436L1.52922 223.353C1.07041 228.827 0.777401 234.213 0.625838 239.422L1.62541 239.451ZM4.32876 207.507C5.0897 202.223 6.02195 196.938 7.1464 191.73L6.16891 191.519C5.03912 196.752 4.1029 202.06 3.33897 207.364L4.32876 207.507ZM11.173 176.227C12.7772 171.026 14.6139 165.994 16.7067 161.219L15.7908 160.818C13.6809 165.632 11.8313 170.7 10.2174 175.932L11.173 176.227ZM24.187 147.106C27.1485 142.493 30.4568 138.316 34.1436 134.694L33.4427 133.981C29.6954 137.663 26.3413 141.899 23.3455 146.565L24.187 147.106ZM46.9154 125.319C51.4866 122.945 56.4861 121.263 61.9507 120.399L61.7946 119.411C56.2231 120.292 51.1207 122.008 46.4544 124.432L46.9154 125.319ZM77.8269 120.146C80.3763 120.431 83.0072 120.868 85.722 121.465L85.9368 120.489C83.1896 119.885 80.5241 119.442 77.9383 119.152L77.8269 120.146ZM85.722 121.465C88.1658 122.003 90.4893 122.573 92.6965 123.173L92.9589 122.208C90.735 121.603 88.3956 121.029 85.9368 120.489L85.722 121.465ZM106.152 127.762C111.155 129.898 115.218 132.233 118.449 134.689L119.054 133.893C115.746 131.378 111.609 129.004 106.544 126.843L106.152 127.762ZM127.345 145.328C129.32 149.892 129.278 154.532 127.731 158.885L128.673 159.219C130.297 154.648 130.346 149.745 128.263 144.931L127.345 145.328ZM119.669 170.197C116.287 173.159 112.159 175.637 107.613 177.388L107.973 178.321C112.622 176.53 116.852 173.993 120.328 170.949L119.669 170.197ZM93.837 180.199C89.2228 180.337 84.5265 179.673 79.999 178.022L79.6564 178.961C84.3128 180.659 89.1366 181.34 93.8671 181.198L93.837 180.199ZM68.0441 170.749C66.3654 169.224 64.7554 167.496 63.2328 165.548L62.445 166.164C64.0016 168.155 65.6501 169.926 67.3718 171.489L68.0441 170.749ZM63.2328 165.548C61.5956 163.454 60.1791 161.354 58.9705 159.251L58.1035 159.749C59.3369 161.895 60.7803 164.035 62.445 166.164L63.2328 165.548ZM53.8366 145.147C53.0108 140.094 53.2323 135.076 54.3361 130.153L53.3604 129.934C52.2306 134.973 52.0019 140.121 52.8497 145.309L53.8366 145.147ZM59.9084 116.126C62.323 111.89 65.331 107.785 68.8093 103.861L68.061 103.197C64.5435 107.166 61.4931 111.326 59.0396 115.63L59.9084 116.126ZM79.7619 93.3143C83.6027 90.117 87.7296 87.1074 92.0499 84.3221L91.508 83.4816C87.156 86.2874 82.9962 89.3207 79.1221 92.5458L79.7619 93.3143ZM105.288 76.7804C109.876 74.4838 114.563 72.4456 119.257 70.7013L118.909 69.7639C114.18 71.521 109.46 73.5737 104.84 75.8862L105.288 76.7804ZM133.821 66.254C136.335 65.6571 138.822 65.1587 141.268 64.7645L141.108 63.7772C138.637 64.1755 136.126 64.6788 133.59 65.281L133.821 66.254ZM141.268 64.7645C143.288 64.4387 145.698 64.1534 148.476 63.9035L148.386 62.9076C145.594 63.1587 143.16 63.4465 141.108 63.7772L141.268 64.7645ZM163.034 63.0159C167.54 62.8308 172.508 62.685 177.898 62.5693L177.877 61.5695C172.482 61.6853 167.507 61.8313 162.993 62.0168L163.034 63.0159ZM192.611 62.3329C197.297 62.2782 202.214 62.2367 207.343 62.2042L207.336 61.2042C202.206 61.2368 197.287 61.2783 192.599 61.333L192.611 62.3329ZM222.072 62.1339C226.818 62.117 231.71 62.104 236.735 62.092L236.733 61.092C231.707 61.104 226.815 61.117 222.068 61.1339L222.072 62.1339ZM251.428 62.0585C256.24 62.0472 261.155 62.0347 266.164 62.0188L266.161 61.0188C261.152 61.0347 256.238 61.0472 251.425 61.0585L251.428 62.0585ZM280.947 61.9617C285.789 61.9391 290.705 61.9119 295.688 61.8784L295.681 60.8784C290.699 60.9119 285.784 60.9391 280.943 60.9617L280.947 61.9617ZM310.372 61.7615C315.237 61.7163 320.155 61.664 325.122 61.603L325.11 60.6031C320.144 60.6641 315.226 60.7164 310.363 60.7615L310.372 61.7615ZM339.899 61.3967C344.756 61.3204 349.652 61.2348 354.581 61.1386L354.561 60.1387C349.634 60.235 344.739 60.3206 339.884 60.3968L339.899 61.3967ZM369.322 60.8201C374.215 60.7039 379.134 60.5762 384.075 60.4359L384.046 59.4363C379.107 59.5766 374.189 59.7042 369.298 59.8204L369.322 60.8201ZM398.776 59.982C403.673 59.8182 408.587 59.641 413.511 59.4493L413.472 58.4501C408.55 58.6417 403.638 58.8188 398.742 58.9825L398.776 59.982ZM428.234 58.8328C433.135 58.6127 438.042 58.3772 442.95 58.1251L442.899 57.1264C437.993 57.3784 433.088 57.6138 428.189 57.8338L428.234 58.8328ZM457.665 57.3183C462.573 57.0317 467.476 56.7275 472.37 56.4043L472.305 55.4065C467.413 55.7295 462.512 56.0336 457.607 56.32L457.665 57.3183ZM487.08 55.373C491.986 55.0083 496.878 54.6234 501.752 54.2169L501.668 53.2204C496.798 53.6266 491.909 54.0113 487.006 54.3757L487.08 55.373ZM516.447 52.9196C521.365 52.4605 526.259 51.978 531.123 51.4709L531.019 50.4763C526.159 50.983 521.269 51.4652 516.354 51.9239L516.447 52.9196ZM545.728 49.8616C550.657 49.2885 555.548 48.688 560.396 48.0589L560.268 47.0672C555.424 47.6957 550.537 48.2956 545.613 48.8683L545.728 49.8616ZM575.011 46.0551C579.904 45.3467 584.745 44.6066 589.53 43.8333L589.37 42.8462C584.592 43.6185 579.755 44.3578 574.867 45.0654L575.011 46.0551ZM604.09 41.3431C609 40.4549 613.839 39.5282 618.601 38.5614L618.402 37.5814C613.648 38.5467 608.815 39.4721 603.912 40.3591L604.09 41.3431ZM632.994 35.4588C637.843 34.3494 642.598 33.1932 647.249 31.9884L646.998 31.0203C642.357 32.2226 637.612 33.3765 632.771 34.484L632.994 35.4588ZM661.51 28.0409C666.347 26.6101 671.05 25.1185 675.607 23.5635L675.284 22.617C670.741 24.1673 666.051 25.6548 661.226 27.082L661.51 28.0409ZM689.466 18.4545C694.177 16.576 698.695 14.6157 703.005 12.5698L702.576 11.6665C698.287 13.7024 693.789 15.6543 689.096 17.5256L689.466 18.4545ZM716.083 5.71633C718.216 4.47847 720.28 3.21302 722.272 1.91935L721.728 1.08065C719.75 2.36477 717.701 3.62151 715.581 4.85145L716.083 5.71633Z" fill="#1D1D1D"/>
</svg>
