<svg width="25" height="24" viewBox="0 0 25 24" fill="none" xmlns="http://www.w3.org/2000/svg">
<path id="Vector" d="M18.1125 15.4914C19.2935 13.8786 19.9999 11.8976 19.9999 9.75005C19.9999 4.3741 15.6259 7.05719e-05 10.2499 7.05719e-05C4.87398 7.05719e-05 0.5 4.3741 0.5 9.75005C0.5 15.126 4.87403 19.5 10.25 19.5C12.3975 19.5 14.3787 18.7935 15.9915 17.6125L22.3789 23.9999L24.5 21.8789C24.5 21.8788 18.1125 15.4914 18.1125 15.4914ZM10.25 16.5C6.52781 16.5 3.50001 13.4722 3.50001 9.75005C3.50001 6.02788 6.52781 3.00008 10.25 3.00008C13.9721 3.00008 16.9999 6.02788 16.9999 9.75005C16.9999 13.4722 13.9721 16.5 10.25 16.5Z" fill="#929292"/>
</svg>
