<svg width="64" height="65" viewBox="0 0 64 65" fill="none" xmlns="http://www.w3.org/2000/svg">
<path id="Vector" d="M32 0.5C25.671 0.5 19.4841 2.37677 14.2218 5.89297C8.95939 9.40918 4.85787 14.4069 2.43587 20.2541C0.013865 26.1014 -0.619842 32.5355 0.614885 38.7429C1.84961 44.9503 4.89732 50.6521 9.3726 55.1274C13.8479 59.6027 19.5497 62.6504 25.7571 63.8851C31.9645 65.1198 38.3986 64.4861 44.2459 62.0641C50.0931 59.6421 55.0908 55.5406 58.607 50.2782C62.1232 45.0159 64 38.829 64 32.5C63.991 24.0158 60.6167 15.8817 54.6175 9.88248C48.6183 3.88325 40.4842 0.508959 32 0.5ZM30.7692 15.2692C31.4995 15.2692 32.2134 15.4858 32.8206 15.8915C33.4278 16.2972 33.901 16.8739 34.1805 17.5485C34.4599 18.2232 34.5331 18.9656 34.3906 19.6819C34.2481 20.3981 33.8965 21.056 33.3801 21.5724C32.8637 22.0888 32.2058 22.4404 31.4896 22.5829C30.7733 22.7254 30.0309 22.6522 29.3563 22.3728C28.6816 22.0933 28.1049 21.6201 27.6992 21.0129C27.2935 20.4057 27.0769 19.6918 27.0769 18.9615C27.0769 17.9823 27.4659 17.0431 28.1584 16.3507C28.8508 15.6582 29.79 15.2692 30.7692 15.2692ZM34.4615 49.7308C33.1559 49.7308 31.9037 49.2121 30.9804 48.2888C30.0571 47.3656 29.5385 46.1134 29.5385 44.8077V32.5C28.8856 32.5 28.2595 32.2407 27.7979 31.779C27.3363 31.3174 27.0769 30.6913 27.0769 30.0385C27.0769 29.3856 27.3363 28.7595 27.7979 28.2979C28.2595 27.8363 28.8856 27.5769 29.5385 27.5769C30.8442 27.5769 32.0964 28.0956 33.0196 29.0189C33.9429 29.9421 34.4615 31.1943 34.4615 32.5V44.8077C35.1144 44.8077 35.7405 45.067 36.2021 45.5286C36.6637 45.9903 36.9231 46.6164 36.9231 47.2692C36.9231 47.9221 36.6637 48.5482 36.2021 49.0098C35.7405 49.4714 35.1144 49.7308 34.4615 49.7308Z" fill="#002D57"/>
</svg>
