<svg width="49" height="48" viewBox="0 0 49 48" fill="none" xmlns="http://www.w3.org/2000/svg">
<g id="mdi:events">
<path id="Vector" d="M42.5 34V16H14.5V34H42.5ZM42.5 6C43.5609 6 44.5783 6.42143 45.3284 7.17157C46.0786 7.92172 46.5 8.93913 46.5 10V34C46.5 35.0609 46.0786 36.0783 45.3284 36.8284C44.5783 37.5786 43.5609 38 42.5 38H14.5C13.4391 38 12.4217 37.5786 11.6716 36.8284C10.9214 36.0783 10.5 35.0609 10.5 34V10C10.5 8.93913 10.9214 7.92172 11.6716 7.17157C12.4217 6.42143 13.4391 6 14.5 6H16.5V2H20.5V6H36.5V2H40.5V6H42.5ZM6.5 42H34.5V46H6.5C5.43913 46 4.42172 45.5786 3.67157 44.8284C2.92143 44.0783 2.5 43.0609 2.5 42V18H6.5V42ZM38.5 30H30.5V22H38.5V30Z" fill="#194C45"/>
</g>
</svg>
