<svg width="49" height="48" viewBox="0 0 49 48" fill="none" xmlns="http://www.w3.org/2000/svg">
<g id="mingcute:announcement-line">
<g id="Group">
<path id="Vector" fill-rule="evenodd" clip-rule="evenodd" d="M38.5004 9.48208V16.0001C39.2883 16.0001 40.0685 16.1553 40.7965 16.4568C41.5244 16.7583 42.1858 17.2003 42.743 17.7574C43.3001 18.3146 43.7421 18.976 44.0436 19.704C44.3452 20.4319 44.5004 21.2121 44.5004 22.0001C44.5004 22.788 44.3452 23.5682 44.0436 24.2962C43.7421 25.0241 43.3001 25.6856 42.743 26.2427C42.1858 26.7999 41.5244 27.2418 40.7965 27.5434C40.0685 27.8449 39.2883 28.0001 38.5004 28.0001V34.0001C38.5004 37.2961 34.7383 39.1781 32.1003 37.2001L27.9803 34.1081C25.778 32.4569 23.2138 31.3545 20.5003 30.8921V36.5801C20.5006 37.8876 20.0281 39.1511 19.1701 40.1377C18.3122 41.1243 17.1264 41.7674 15.8316 41.9487C14.5367 42.1299 13.22 41.8369 12.1241 41.1238C11.0282 40.4106 10.2271 39.3254 9.86835 38.0681L6.72835 27.0761C5.59839 25.7417 4.86302 24.1185 4.60492 22.3891C4.34682 20.6597 4.57622 18.8926 5.26732 17.2864C5.95842 15.6802 7.08383 14.2986 8.51705 13.2969C9.95027 12.2952 11.6345 11.7131 13.3803 11.6161L19.4163 11.2801C22.3696 11.116 25.2418 10.253 27.7963 8.76208L32.4843 6.02608C35.1523 4.47208 38.5004 6.39408 38.5004 9.48208ZM11.7683 30.1561L13.7143 36.9701C13.808 37.2999 14.0178 37.5847 14.3051 37.7719C14.5924 37.9591 14.9377 38.036 15.2772 37.9885C15.6168 37.941 15.9277 37.7722 16.1525 37.5133C16.3773 37.2544 16.5009 36.923 16.5003 36.5801V30.5601L13.3803 30.3861C12.8377 30.3534 12.2985 30.2764 11.7683 30.1561ZM34.5003 9.48208L29.8103 12.2201C26.9622 13.8835 23.7845 14.9034 20.5003 15.2081V26.8461C24.0743 27.3381 27.4763 28.7321 30.3803 30.9081L34.5003 34.0001V9.48208ZM16.5003 15.4481L13.6003 15.6081C12.2512 15.6826 10.9791 16.2601 10.035 17.2267C9.09088 18.1933 8.54345 19.4787 8.50076 20.8292C8.45806 22.1797 8.92319 23.4971 9.80435 24.5214C10.6855 25.5458 11.9186 26.2025 13.2603 26.3621L13.6003 26.3921L16.5003 26.5521V15.4481ZM38.5004 20.0001V24.0001C39.0101 23.9995 39.5004 23.8043 39.8711 23.4544C40.2418 23.1044 40.4648 22.6262 40.4947 22.1173C40.5246 21.6084 40.359 21.1073 40.0318 20.7164C39.7046 20.3255 39.2405 20.0743 38.7344 20.0141L38.5004 20.0001Z" fill="#194C45"/>
</g>
</g>
</svg>
