<svg width="407" height="716" viewBox="0 0 407 716" fill="none" xmlns="http://www.w3.org/2000/svg">
<path d="M419.997 -3H417.997V-1V406.427C417.997 452.763 407.562 487.848 386.98 511.978L386.98 511.979C366.45 536.069 336.56 548.227 296.992 548.227C257.425 548.227 227.552 536.07 207.018 511.979L207.017 511.978C186.439 487.848 176.001 452.763 176.001 406.427V-1V-3H174.001H4H2V-1V406.427C2 473.249 14.3691 529.84 39.2287 576.134C64.0625 622.404 98.3422 656.998 142.071 679.821C185.732 702.63 236.055 714 292.998 714C349.948 714 401.087 702.454 446.409 679.331L445.5 677.55L446.409 679.331C491.774 656.176 527.557 621.617 553.733 575.68C579.948 529.72 593 473.263 593 406.427V-1V-3H591H419.997Z" stroke="#929292" stroke-width="4" stroke-miterlimit="10"/>
</svg>
