<svg width="32" height="32" viewBox="0 0 32 32" fill="none" xmlns="http://www.w3.org/2000/svg">
<g id="ri:linkedin-fill">
<path id="Vector" d="M9.25521 6.66678C9.25486 7.37402 8.97356 8.05216 8.47322 8.55201C7.97287 9.05185 7.29445 9.33247 6.58721 9.33211C5.87996 9.33176 5.20183 9.05047 4.70198 8.55012C4.20213 8.04977 3.92152 7.37136 3.92188 6.66411C3.92223 5.95687 4.20352 5.27873 4.70387 4.77889C5.20421 4.27904 5.88263 3.99843 6.58987 3.99878C7.29712 3.99913 7.97526 4.28042 8.4751 4.78077C8.97495 5.28112 9.25556 5.95954 9.25521 6.66678ZM9.33521 11.3068H4.00188V28.0001H9.33521V11.3068ZM17.7619 11.3068H12.4552V28.0001H17.7085V19.2401C17.7085 14.3601 24.0685 13.9068 24.0685 19.2401V28.0001H29.3352V17.4268C29.3352 9.20011 19.9219 9.50678 17.7085 13.5468L17.7619 11.3068Z" fill="#FCFCFC"/>
</g>
</svg>
