<svg width="70" height="61" viewBox="0 0 70 61" fill="none" xmlns="http://www.w3.org/2000/svg">
<g id="Group 72">
<path id="Vector" d="M1.73267 0.5C1.27314 0.5 0.832428 0.679587 0.507488 0.999255C0.182549 1.31892 0 1.75248 0 2.20456V50.6142C0 51.0662 0.182549 51.4998 0.507488 51.8195C0.832428 52.1391 1.27314 52.3187 1.73267 52.3187H48.0851C47.4794 51.5346 46.875 50.7498 46.2665 49.9664C45.5097 48.868 44.4105 47.9278 44.0882 46.5928C39.6318 48.4023 34.5114 48.57 29.9385 47.068C29.838 47.0359 29.7396 46.9964 29.6398 46.963C29.1151 47.4675 28.5496 48.3471 28.4602 48.9096H21.8712C22.366 47.2603 21.3153 44.685 22.3092 43.0064C22.3882 42.9859 22.4839 42.8543 22.5275 42.7186C22.4152 42.615 22.3016 42.5141 22.1921 42.4084C21.2176 42.7002 20.8281 43.4223 20.2861 44.0557C20.5821 45.4357 18.446 45.1091 18.6616 46.5171C20.1496 47.6523 17.2879 46.7871 16.4368 46.8778C15.5338 46.8873 12.8918 45.9573 13.8087 47.8596C13.6652 48.3819 13.7976 48.7023 14.0617 48.9096H13.6569C13.5939 48.3123 12.4503 48.2237 12.0095 47.9305C11.2672 47.7532 10.3808 47.6646 9.61218 47.3278C9.41465 47.8678 7.63208 48.4855 7.24188 48.9096H3.46535V24.0018C3.99693 24.3523 5.18901 24.2132 3.56446 23.4564H3.46535V15.6058C3.78069 15.449 4.00594 15.3992 3.99208 15.6617C4.77317 15.4027 5.11346 13.5324 6.46495 14.2981C7.30772 14.4201 8.70218 15.7054 8.00148 15.8663C8.54762 17.1781 8.93505 16.3333 9.60525 17.8968C9.14644 20.035 10.9034 21.6195 11.8674 22.9825C13.0221 23.4543 13.4788 24.923 15.3556 24.9803C15.6107 25.1998 15.9378 25.3989 16.2788 25.5898C16.3724 24.8848 16.5048 24.1852 16.6718 23.4939C16.6267 23.4836 16.5831 23.4775 16.5346 23.4618C14.7291 25.1003 14.359 22.2639 16.1222 22.1527C16.24 22.1452 16.3668 22.1514 16.5034 22.1698C16.7078 22.1459 16.8776 22.1698 17.0211 22.2195C17.6001 20.3522 18.458 18.5798 19.5667 16.9606C20.1621 16.0866 20.8305 15.2628 21.5648 14.4979C21.2003 13.8979 20.8274 13.5631 20.3873 14.3465C20.3541 13.184 17.159 11.9656 19.5099 13.081C20.7429 14.1263 21.1469 12.8997 21.3417 12.0624C22.3986 10.9783 20.2584 10.6081 20.6486 9.89964C19.9999 8.94304 19.0393 7.96326 18.0524 7.37075C16.1381 7.58894 15.4672 7.19143 18.0267 7.19007C18.2575 6.01392 18.6408 5.18073 18.9049 4.19072C18.6276 4.11231 18.3379 4.12458 18.0524 4.1239C16.8277 3.96231 16.1007 4.428 16.1256 5.34778C15.2059 5.27551 16.0321 3.73322 14.6141 4.20436C12.4642 4.17095 15.0632 4.8855 14.8636 4.98846C14.6175 5.53119 13.0685 5.193 13.2508 5.74324C12.5411 4.45186 12.2181 6.35892 11.6657 5.05255C11.3331 4.73891 13.0588 5.3621 12.6658 4.21868C11.7967 3.8914 11.4855 4.46413 10.8084 4.698C8.78743 5.79846 11.1612 6.83348 12.1876 7.2003C13.7346 6.79461 13.7332 6.28188 14.8088 6.84575C16.0148 7.50371 13.5911 7.04143 13.6652 8.05394C13.5266 7.42462 13.3534 7.04484 12.6049 7.85144C11.6068 8.02871 11.1612 6.67938 10.4161 6.77416C8.71812 6.54711 9.35228 10.304 10.7509 9.02486C11.5971 10.4656 9.6697 9.40259 9.09792 9.24168C7.80673 10.6606 6.41574 9.20486 4.87436 9.14623C4.38089 8.82304 3.89713 8.81895 3.46535 8.98327V3.90913H21.6397C20.3437 3.9439 19.1862 4.11231 19.6575 5.02937C19.5813 6.79802 21.9072 5.39346 22.242 6.99302C23.2081 8.11053 21.6674 10.4867 23.3384 10.0694C22.7237 10.8051 22.8006 11.9772 23.2802 12.901C25.0544 11.4361 27.0665 10.2753 29.2323 9.46737C29.2704 9.25736 29.2406 9.016 29.1131 8.731C28.8961 7.66121 29.9052 7.31962 29.5518 6.13324C30.0272 5.24005 29.6585 4.29504 28.8435 3.90913H66.5347V8.73509C66.4271 8.68976 66.3167 8.65149 66.2041 8.62054C65.2275 9.49123 66.0169 9.57373 66.5347 9.37805V10.139C65.38 9.50009 64.1117 9.42986 62.8801 9.69578C62.3208 8.73918 60.3407 8.76168 59.6892 7.90053C58.5415 6.54779 60.0392 6.95143 61.0407 6.84711C60.7565 6.00165 59.0516 5.60074 58.3315 5.74051C57.0306 6.44143 59.0149 7.07007 58.8146 8.01099C58.8146 8.69486 57.9669 8.69963 57.2274 8.66213C57.5261 7.93803 55.8115 7.04757 55.1316 7.63666C53.8446 7.25348 53.3539 7.47848 54.2029 6.15983C53.9062 5.14596 52.6802 5.12687 52.1306 4.42322C51.4285 5.88778 50.2579 5.44391 49.0035 6.33574C48.501 7.05848 47.4544 7.70757 47.4025 8.18485C46.6248 8.54417 45.8465 6.71075 45.3011 8.33485C44.8062 9.70941 45.3288 10.3756 43.6592 9.25055C41.9314 7.43894 47.1301 5.8871 45.1978 5.11596C43.5941 5.57619 42.63 6.68825 42.3112 8.26804C42.1386 8.62736 42.2169 8.87759 42.3992 9.08009C48.4871 10.8665 53.525 15.6829 55.5731 21.5916C55.6049 21.2357 55.6652 20.8934 55.7865 20.6432C56.2987 20.2586 55.8926 22.1193 56.9509 21.0611C56.1712 22.7077 58.9109 21.2793 59.2817 20.5995C58.7383 19.2577 61.2361 18.6256 61.1779 18.3727C60.2582 17.4236 60.7808 18.3679 59.7661 18.5854C59.43 18.145 60.4107 15.7299 59.1056 15.9515C57.1567 15.4579 60.7635 14.0458 61.7372 14.5654C62.1808 12.9508 62.8184 14.2367 61.7227 14.9792C61.3054 16.4118 61.505 18.3659 62.7325 16.4513C63.2842 15.9229 63.1469 14.5456 63.8649 14.3056C64.8297 13.8583 66.5513 13.5085 66.5062 12.1258C66.5159 12.1231 66.5249 12.1238 66.5347 12.1217V48.9096H63.7908C64.3854 48.0996 65.1721 46.7141 64.339 46.2116C63.0839 45.9982 62.1461 44.5091 60.629 44.5711C59.9443 43.7952 58.3675 43.4025 57.9434 43.2511C57.5192 43.0998 56.7832 43.9745 56.0291 43.5879C55.8022 43.5519 55.5705 43.556 55.3451 43.6002C57.6142 46.498 59.8618 49.4114 62.1177 52.3187H68.2673C68.7269 52.3187 69.1676 52.1391 69.4925 51.8195C69.8174 51.4998 70 51.0662 70 50.6142V2.20456C70 1.75248 69.8174 1.31892 69.4925 0.999255C69.1676 0.679587 68.7269 0.5 68.2673 0.5H1.73267ZM35.4782 4.12731C34.3624 4.668 36.3411 6.82052 36.3958 4.7655C36.6003 5.0655 37.9719 5.36823 37.5235 4.40072C36.5268 3.82322 36.6786 4.48663 35.4782 4.12731ZM51.4743 4.12936C50.2704 4.70618 52.5277 4.71709 51.4743 4.12936V4.12936ZM13.2307 4.32504C12.3297 4.98368 14.5531 5.63551 13.3485 4.35981L13.2307 4.32504ZM20.6084 4.71573C20.3859 4.85277 20.8337 4.92846 20.6084 4.71573V4.71573ZM11.9069 5.55778C11.8515 5.56664 12.013 5.67846 11.9069 5.55778V5.55778ZM14.9932 5.83869C14.91 6.27506 16.0792 6.02415 14.9932 5.83869V5.83869ZM16.5145 5.96142C16.8936 6.2137 17.5471 5.89665 16.5145 5.96142V5.96142ZM13.4823 6.00642C13.3963 6.31256 14.1539 6.0746 13.4823 6.00642V6.00642ZM15.6322 6.96643C15.2981 7.17439 16.3114 7.12052 15.6322 6.96643V6.96643ZM16.1111 8.0294C15.7022 9.31259 17.5645 11.0499 16.1194 9.58737C15.7223 9.00236 15.5157 8.4419 16.1111 8.0294ZM13.6867 8.15894C14.2821 9.13736 15.1886 9.3985 14.4297 9.73532C13.9258 9.49532 13.8094 8.74804 13.6867 8.15894ZM23.0286 9.14486C22.8027 9.1585 23.1125 9.20009 23.0286 9.14486V9.14486ZM8.97594 9.45373C8.86852 9.4585 8.89832 9.76328 8.97594 9.45373V9.45373ZM14.3431 9.95419C14.0263 9.9426 14.2946 10.5992 14.3431 9.95419V9.95419ZM18.3268 9.95828C18.0676 11.2197 19.0961 11.1392 19.0268 11.266C18.1771 11.6342 18.3802 13.1506 17.7301 11.9935C17.3198 11.8053 17.9408 10.1403 18.2201 9.99442L18.3268 9.95828ZM14.1497 9.95964C14.1435 10.2549 14.2405 9.9801 14.1497 9.95964V9.95964ZM64.2836 10.0728C64.163 10.1887 64.3113 10.1192 64.2836 10.0728V10.0728ZM14.1996 10.2378C13.5661 10.681 14.6723 10.7247 14.1996 10.2378V10.2378ZM36.224 10.9081C32.4446 10.9339 28.7761 12.1672 25.7711 14.4222C18.0849 20.1802 16.5893 31.0349 22.4423 38.5963C27.921 45.6743 37.9254 47.3816 45.4868 42.8495L46.9312 44.7157C46.647 45.3661 46.6734 45.988 47.004 46.4162L57.4832 59.9538C58.1069 60.759 59.613 60.6629 60.8466 59.7383C62.0803 58.8145 62.5745 57.412 61.9514 56.606L51.4722 43.0684C51.1409 42.6402 50.5386 42.4493 49.8254 42.5461L48.3811 40.6806C54.8329 34.7147 55.8219 24.7737 50.3439 17.6956C47.417 13.9149 43.1948 11.6581 38.744 11.0649C37.9088 10.9537 37.0667 10.9012 36.224 10.9081ZM16.5484 12.6181C16.9816 13.6299 18.6547 13.036 17.9997 14.4154C18.7288 15.0904 17.884 17.4699 17.6005 15.4422C15.786 15.4333 14.9197 13.6524 16.4431 12.7176L16.5484 12.6181ZM18.1293 12.7858C17.256 13.0442 18.6838 13.2495 18.1293 12.7858V12.7858ZM61.6735 14.0322C61.722 13.9981 61.8426 14.2429 61.6735 14.0322V14.0322ZM36.9219 14.7283C38.9332 14.8038 40.9024 15.3175 42.6873 16.2325C44.4723 17.1474 46.0285 18.4408 47.2438 20.0193C48.3325 21.4196 49.1293 23.0176 49.5886 24.7216C50.0479 26.4257 50.1605 28.2022 49.9201 29.9492C49.6796 31.6962 49.0908 33.3792 48.1874 34.9018C47.284 36.4243 46.0839 37.7563 44.6558 38.8213C43.2324 39.8925 41.608 40.6765 39.8758 41.1284C38.1436 41.5802 36.3377 41.6911 34.5618 41.4545C32.7859 41.218 31.075 40.6387 29.5274 39.7499C27.9797 38.8611 26.6257 37.6803 25.5431 36.2754C24.4544 34.8751 23.6576 33.277 23.1984 31.5729C22.7391 29.8688 22.6266 28.0923 22.8671 26.3453C23.1076 24.5984 23.6965 22.9153 24.5999 21.3928C25.5034 19.8703 26.7036 18.5383 28.1317 17.4734C30.6471 15.5786 33.7562 14.6077 36.9219 14.7283ZM63.666 15.4306C62.5779 16.3163 64.9725 16.154 63.666 15.4306V15.4306ZM64.9621 16.1683C63.7575 16.7472 66.0149 16.7479 64.9621 16.1683V16.1683ZM65.7466 16.4383C64.6724 17.3179 66.8417 16.8556 65.7466 16.4383V16.4383ZM65.7037 16.6293C65.6669 16.6913 65.7633 16.6286 65.7037 16.6293V16.6293ZM65.8062 16.739C65.7196 16.7499 65.8388 16.7909 65.8062 16.739V16.739ZM36.4624 17.4502C34.9473 17.4236 33.4517 17.757 32.0725 18.3556C32.1446 18.4422 32.2478 18.5254 32.3989 18.6004C31.0128 18.1572 30.6094 19.8802 31.193 20.6554L32.1307 20.7311L32.9146 20.3916C33.4212 19.8734 33.5473 19.9627 33.7109 19.1779L34.0165 19.2168L34.2591 19.1172L34.8115 19.3859C35.4741 19.6409 35.5052 20.1904 35.2835 20.3513C34.9695 20.5416 35.3396 20.5695 35.3701 20.6875C35.5267 20.6432 35.6182 20.5102 35.7166 20.4393L35.8941 20.3766C36.5414 19.9586 36.0895 19.8209 35.6397 19.257L35.8781 19.317C36.2267 19.7057 36.4319 20.1454 36.6384 20.6125C36.662 20.6309 36.6835 20.6548 36.7105 20.6629C36.8671 20.7141 37.0882 20.697 37.2774 20.6459C37.4646 20.5954 37.477 20.2443 37.4451 19.9082C37.712 21.1054 40.329 20.7495 38.7717 21.4798C37.8742 21.4995 36.4478 21.0154 36.1851 21.627C35.6044 21.3679 35.3077 21.1982 35.1899 21.0652C34.8323 20.9329 33.8031 20.5498 33.7663 20.5498C33.7227 20.5498 32.4128 20.7843 32.4128 20.7843L31.3316 21.1879C30.9802 22.302 30.4257 21.7061 30.2372 22.57C30.0896 23.1223 28.8192 24.3155 29.4846 25.255C30.0785 27.9728 33.5224 26.1632 34.325 27.4682C33.9479 28.2721 35.813 29.8014 34.7692 31.118C35.2613 33.0306 36.5837 36.2276 38.7114 33.5058C39.2728 31.8762 40.4815 30.9953 40.4385 29.3787C39.796 27.7866 43.5781 26.6064 42.0651 25.3171C41.7027 25.3593 41.6611 25.4364 41.3735 25.5305C40.7691 25.508 40.6132 25.0287 40.4073 24.7273C40.2501 24.5074 40.1111 24.2756 39.9915 24.0339C40.3761 24.6203 40.7733 25.118 41.3305 25.4241C42.2946 25.2114 43.4 24.5098 43.8498 23.995C43.8387 21.9884 46.5805 24.07 46.525 25.5782C46.6949 25.9846 46.9104 26.2669 47.1266 26.4319C46.9729 25.4673 46.6803 24.5292 46.2575 23.6459C45.4889 21.9864 44.258 20.5613 42.7624 19.495C42.7347 19.5372 42.6653 19.54 42.6792 19.4377C42.4769 19.2968 42.2701 19.1624 42.0589 19.0347C42.0818 19.1295 42.1095 19.2256 42.1414 19.3231C42.0506 19.1902 41.9549 19.0552 41.8759 18.925C40.2431 17.9786 38.3697 17.4365 36.4624 17.4502ZM59.0128 17.5402C59.5152 18.9488 57.2649 22.2134 56.9377 20.0704C57.1685 19.0109 59.0155 19.1704 59.0128 17.5402ZM16.8222 17.9125C16.8062 17.9636 16.9234 17.9009 16.8222 17.9125V17.9125ZM17.8902 18.4081C17.6462 18.5322 18.0919 18.5731 17.8902 18.4081V18.4081ZM38.7017 18.4531C39.261 18.9168 40.977 19.5304 39.1605 19.0409C38.2151 19.4657 37.9227 19.1936 38.7017 18.4531ZM34.3783 19.2782C34.2563 19.315 34.3596 19.5638 34.2834 19.6422C34.8032 19.8925 34.5121 19.4057 34.589 19.3259C34.4837 19.2768 34.4185 19.2652 34.3783 19.2782ZM42.3022 19.7861C42.463 20.1973 42.5697 20.4598 42.1566 19.9497C42.1908 19.9334 42.2212 19.9105 42.2462 19.8824C42.2712 19.8543 42.2903 19.8216 42.3022 19.7861ZM34.4268 19.8372C34.2231 19.8154 34.115 19.9497 34.1143 20.1372C34.6514 20.4243 34.5959 19.9504 34.6618 19.9143C34.5887 19.8746 34.5095 19.8485 34.4268 19.8372ZM42.7249 22.7575C43.0313 22.7698 42.4318 23.1939 42.5344 22.7814C42.6196 22.763 42.6813 22.7555 42.7249 22.7575ZM63.8365 25.4248C62.8385 26.468 65.0258 26.6514 63.8365 25.4248V25.4248ZM63.7672 25.5871C63.7485 25.6566 63.8698 25.5762 63.7672 25.5871V25.5871ZM63.8532 25.7364C63.7492 25.7194 63.8629 25.8066 63.8532 25.7364V25.7364ZM64.5788 25.8728C63.612 26.7005 65.7459 26.3991 64.5788 25.8728V25.8728ZM64.6828 26.108C64.6689 26.2082 64.7562 26.0957 64.6828 26.108V26.108ZM64.5462 26.1441C64.4901 26.1919 64.61 26.2287 64.5462 26.1441V26.1441ZM56.6473 27.216C56.6646 27.6414 56.6681 28.0662 56.6584 28.491C57.4534 28.6157 58.4493 28.5803 58.468 29.4455C59.893 29.5062 58.3211 31.5537 58.2691 29.6583C57.6886 29.576 57.0965 29.6747 56.5759 29.9405C56.4313 31.4284 56.1218 32.8962 55.6528 34.3179C56.8171 33.9544 58.0051 33.9899 58.7064 35.1033C60.5535 35.0965 58.9823 36.3354 60.2915 36.5883C60.8494 35.4674 59.9976 35.6085 61.0442 34.6949C62.0595 33.4178 61.3948 31.7685 60.3823 31.071C60.1716 30.2814 59.3323 29.8546 59.7273 29.316C60.4966 30.3421 61.5868 29.5737 60.6768 29.0187C61.3484 28.4017 63.7478 30.6087 62.4005 28.911C61.7351 28.7896 60.821 27.4362 60.6138 28.3076C60.5542 29.0303 58.721 27.2105 58.0446 27.9551C57.8491 27.2841 56.8927 27.6891 56.8386 27.9885C57.1325 27.5385 56.9474 27.306 56.6473 27.216ZM60.1737 27.7989C59.1805 28.3539 61.0705 28.3348 60.1737 27.7989V27.7989ZM34.2286 27.8466C34.2057 27.876 34.3083 28.0239 34.2286 27.8466V27.8466ZM25.5285 27.9298C25.5079 28.8766 25.6149 29.8219 25.8466 30.741C26.6437 29.5533 26.6125 28.4378 25.5285 27.9298ZM60.1224 27.9626C60.0489 27.9789 60.182 28.0048 60.1224 27.9626V27.9626ZM60.794 28.0444C60.4696 28.2694 61.1176 28.2694 60.794 28.0444V28.0444ZM60.794 28.0512C60.4987 28.2598 61.0885 28.2598 60.794 28.0512V28.0512ZM60.1889 28.1105C60.0863 28.0982 60.2 28.1794 60.1889 28.1105V28.1105ZM56.6529 28.851C56.6459 29.0146 56.6314 29.1783 56.6203 29.3419C56.8442 29.0937 56.9412 28.8373 56.6529 28.851ZM40.8564 29.5573C40.0552 29.9903 41.7138 30.188 41.0207 29.6801L40.9909 29.6071L40.8564 29.5573ZM41.7935 29.6787C41.002 30.1655 39.7739 32.4865 41.4767 32.5594C41.887 32.0794 42.9273 29.9392 41.7935 29.6787ZM63.262 31.1569C62.6278 32.3876 65.1035 31.8953 63.262 31.1569V31.1569ZM43.0618 31.3205C42.0319 32.0003 44.0605 31.9144 43.0618 31.3205V31.3205ZM64.9149 34.1269C65.5013 35.4326 63.5565 36.2147 63.7035 37.427C64.7015 37.9002 65.2164 36.1192 65.9192 35.5745C66.7502 34.8599 65.2649 34.6485 64.9149 34.1269ZM18.8203 38.1429C18.934 38.8615 19.2763 39.557 19.8876 39.769C19.5054 39.2442 19.1492 38.7016 18.8203 38.1429Z" fill="white"/>
</g>
</svg>
