<svg width="60" height="61" viewBox="0 0 60 61" fill="none" xmlns="http://www.w3.org/2000/svg">
<g id="ph:student-fill">
<path id="Vector" d="M53.093 13.7211L30.593 6.22111C30.2081 6.0928 29.7919 6.0928 29.407 6.22111L6.90703 13.7211C6.53368 13.8456 6.20896 14.0843 5.97887 14.4036C5.74877 14.7229 5.62497 15.1065 5.625 15.5V34.25C5.625 34.7473 5.82254 35.2242 6.17417 35.5758C6.52581 35.9275 7.00272 36.125 7.5 36.125C7.99728 36.125 8.47419 35.9275 8.82582 35.5758C9.17746 35.2242 9.375 34.7473 9.375 34.25V18.1016L17.2477 20.7242C15.156 24.1035 14.4909 28.1746 15.3983 32.0439C16.3057 35.9131 18.7115 39.264 22.0875 41.361C17.8687 43.0156 14.2219 46.0086 11.5547 50.1008C11.416 50.307 11.3196 50.5386 11.2712 50.7824C11.2228 51.0261 11.2234 51.277 11.2728 51.5205C11.3223 51.7641 11.4196 51.9953 11.5592 52.2009C11.6988 52.4064 11.8779 52.5822 12.086 52.718C12.2941 52.8537 12.5272 52.9467 12.7716 52.9916C13.016 53.0365 13.2669 53.0324 13.5096 52.9795C13.7524 52.9266 13.9823 52.8259 14.1858 52.6834C14.3894 52.5409 14.5626 52.3593 14.6953 52.1492C18.2273 46.7305 23.8055 43.625 30 43.625C36.1945 43.625 41.7727 46.7305 45.3047 52.1492C45.5797 52.558 46.0045 52.842 46.4873 52.9401C46.9701 53.0381 47.472 52.9422 47.8847 52.673C48.2973 52.4039 48.5874 51.9832 48.6923 51.5019C48.7972 51.0205 48.7085 50.5172 48.4453 50.1008C45.7781 46.0086 42.1172 43.0156 37.9125 41.361C41.2852 39.2641 43.6888 35.9153 44.596 32.049C45.5033 28.1826 44.8403 24.1142 42.7523 20.736L53.093 17.2906C53.4664 17.1663 53.7912 16.9275 54.0214 16.6082C54.2516 16.2889 54.3754 15.9053 54.3754 15.5117C54.3754 15.1181 54.2516 14.7345 54.0214 14.4152C53.7912 14.096 53.4664 13.8572 53.093 13.7328V13.7211ZM41.25 28.625C41.2505 30.4036 40.8293 32.1569 40.021 33.7412C39.2126 35.3255 38.0402 36.6955 36.5998 37.7389C35.1595 38.7823 33.4923 39.4693 31.735 39.7436C29.9777 40.0179 28.1804 39.8716 26.4906 39.3168C24.8008 38.762 23.2666 37.8144 22.0139 36.5519C20.7612 35.2893 19.8257 33.7477 19.2842 32.0536C18.7426 30.3595 18.6105 28.5611 18.8986 26.806C19.1866 25.0509 19.8867 23.3892 20.9414 21.957L29.407 24.7696C29.7919 24.8979 30.2081 24.8979 30.593 24.7696L39.0586 21.957C40.4829 23.8884 41.251 26.2253 41.25 28.625Z" fill="white"/>
</g>
</svg>
