<svg width="60" height="61" viewBox="0 0 60 61" fill="none" xmlns="http://www.w3.org/2000/svg">
<g id="fluent:app-title-24-regular">
<path id="Vector" d="M11.875 51.75H48.125C48.6001 51.7501 49.0574 51.9306 49.4045 52.2549C49.7516 52.5793 49.9627 53.0232 49.9951 53.4972C50.0274 53.9712 49.8787 54.4397 49.5789 54.8082C49.2791 55.1768 48.8506 55.4177 48.38 55.4825L48.125 55.5H11.875C11.3999 55.4999 10.9426 55.3194 10.5955 54.9951C10.2484 54.6707 10.0373 54.2268 10.0049 53.7528C9.97256 53.2788 10.1213 52.8103 10.4211 52.4418C10.7209 52.0732 11.1494 51.8323 11.62 51.7675L11.875 51.75ZM40.625 8C43.1114 8 45.496 8.98772 47.2541 10.7459C49.0123 12.504 50 14.8886 50 17.375V38.625C50 41.1114 49.0123 43.496 47.2541 45.2541C45.496 47.0123 43.1114 48 40.625 48H19.375C16.8886 48 14.504 47.0123 12.7459 45.2541C10.9877 43.496 10 41.1114 10 38.625V17.375C10 14.8886 10.9877 12.504 12.7459 10.7459C14.504 8.98772 16.8886 8 19.375 8H40.625ZM40.625 11.75H19.375C17.8832 11.75 16.4524 12.3426 15.3975 13.3975C14.3426 14.4524 13.75 15.8832 13.75 17.375V38.625C13.75 40.1168 14.3426 41.5476 15.3975 42.6025C16.4524 43.6574 17.8832 44.25 19.375 44.25H40.625C42.1168 44.25 43.5476 43.6574 44.6025 42.6025C45.6574 41.5476 46.25 40.1168 46.25 38.625V17.375C46.25 15.8832 45.6574 14.4524 44.6025 13.3975C43.5476 12.3426 42.1168 11.75 40.625 11.75Z" fill="white"/>
</g>
</svg>
