<svg width="60" height="61" viewBox="0 0 60 61" fill="none" xmlns="http://www.w3.org/2000/svg">
<g id="octicon:people-16">
<path id="Vector" d="M7.50023 21.125C7.49996 18.9496 8.04045 16.8081 9.07309 14.8934C10.1057 12.9786 11.5981 11.3505 13.416 10.1556C15.234 8.96066 17.3204 8.23635 19.4877 8.0478C21.655 7.85926 23.8352 8.21239 25.8321 9.07544C27.8291 9.93848 29.5802 11.2844 30.928 12.9921C32.2758 14.6998 33.1779 16.7157 33.5533 18.8585C33.9287 21.0014 33.7656 23.2039 33.0786 25.2681C32.3917 27.3322 31.2024 29.1933 29.6177 30.6838C32.6054 32.1343 35.1994 34.2835 37.1799 36.9495C39.1605 39.6155 40.4692 42.7196 40.9952 45.9988C41.0531 46.3637 41.0385 46.7364 40.9523 47.0957C40.8661 47.455 40.71 47.7938 40.4929 48.0927C40.2758 48.3917 40.0019 48.6449 39.6869 48.838C39.372 49.0311 39.022 49.1603 38.6571 49.2182C38.2922 49.276 37.9195 49.2614 37.5602 49.1753C37.2009 49.0891 36.8621 48.933 36.5632 48.7158C36.2642 48.4987 36.011 48.2249 35.8179 47.9099C35.6248 47.5949 35.4956 47.2449 35.4377 46.88C34.8753 43.3562 33.075 40.1483 30.3601 37.8324C27.6452 35.5165 24.1937 34.2443 20.6252 34.2443C17.0568 34.2443 13.6052 35.5165 10.8903 37.8324C8.17549 40.1483 6.37518 43.3562 5.81273 46.88C5.75462 47.2449 5.6252 47.5948 5.43187 47.9097C5.23854 48.2246 4.98508 48.4984 4.68596 48.7153C4.38684 48.9322 4.04791 49.0881 3.68854 49.1741C3.32917 49.2601 2.95639 49.2744 2.59148 49.2163C2.22657 49.1582 1.87667 49.0288 1.56178 48.8354C1.24688 48.6421 0.97315 48.3886 0.756209 48.0895C0.539269 47.7904 0.383368 47.4515 0.297409 47.0921C0.211451 46.7327 0.197117 46.3599 0.255227 45.995C0.779374 42.7161 2.08746 39.6122 4.06828 36.9471C6.04911 34.2821 8.64412 32.1347 11.6327 30.6875C10.3277 29.4601 9.28786 27.9784 8.57714 26.3338C7.86643 24.6893 7.49994 22.9166 7.50023 21.125ZM41.2502 15.5C43.429 15.5016 45.5605 16.1355 47.386 17.325C49.2115 18.5144 50.6524 20.2082 51.5339 22.2007C52.4154 24.1932 52.6996 26.3988 52.3519 28.5497C52.0042 30.7005 51.0396 32.7042 49.5752 34.3175C51.8591 35.4489 53.8882 37.034 55.5388 38.976C57.1894 40.9181 58.4267 43.1762 59.1752 45.6125C59.3239 46.0853 59.3448 46.589 59.2359 47.0724C59.1269 47.5559 58.892 48.0019 58.555 48.3652C58.2179 48.7286 57.7907 48.9962 57.3168 49.1411C56.8429 49.2859 56.3391 49.3028 55.8565 49.19C55.374 49.0784 54.9295 48.8414 54.568 48.503C54.2065 48.1645 53.9408 47.7366 53.7977 47.2625C53.1247 45.0889 51.8996 43.1268 50.242 41.5678C48.5844 40.0089 46.551 38.9062 44.3402 38.3675C43.7261 38.2193 43.1798 37.8686 42.7893 37.372C42.3989 36.8754 42.1869 36.2618 42.1877 35.63V34.31C42.1874 33.7864 42.3332 33.2731 42.6089 32.8279C42.8845 32.3827 43.2789 32.0232 43.7477 31.79C44.8846 31.2266 45.7976 30.2954 46.3384 29.1476C46.8792 27.9998 47.0161 26.7029 46.7268 25.4675C46.4375 24.2321 45.739 23.1308 44.7448 22.3425C43.7506 21.5541 42.519 21.1251 41.2502 21.125C40.5043 21.125 39.7889 20.8287 39.2615 20.3013C38.734 19.7738 38.4377 19.0585 38.4377 18.3125C38.4377 17.5666 38.734 16.8512 39.2615 16.3238C39.7889 15.7963 40.5043 15.5 41.2502 15.5ZM20.6252 13.625C19.6265 13.6024 18.6332 13.7796 17.7039 14.1462C16.7745 14.5127 15.9278 15.0612 15.2133 15.7595C14.4989 16.4578 13.9311 17.2918 13.5435 18.2126C13.1558 19.1333 12.9559 20.1222 12.9557 21.1212C12.9554 22.1203 13.1548 23.1093 13.542 24.0302C13.9292 24.9511 14.4965 25.7854 15.2106 26.4841C15.9247 27.1827 16.7712 27.7317 17.7004 28.0987C18.6296 28.4657 19.6227 28.6434 20.6215 28.6213C22.5811 28.5779 24.4459 27.7692 25.8166 26.3681C27.1874 24.9671 27.9552 23.0851 27.9557 21.125C27.9562 19.1649 27.1893 17.2825 25.8192 15.8808C24.4492 14.479 22.5848 13.6693 20.6252 13.625Z" fill="white"/>
</g>
</svg>
