<svg width="60" height="61" viewBox="0 0 60 61" fill="none" xmlns="http://www.w3.org/2000/svg">
<g id="solar:buildings-2-linear">
<g id="Group">
<path id="Vector" d="M55 55.5H5" stroke="white" stroke-width="4" stroke-linecap="round"/>
<path id="Vector_2" d="M42.5 55.5V15.5C42.5 10.785 42.5 8.43 41.035 6.965C39.57 5.5 37.215 5.5 32.5 5.5H27.5C22.785 5.5 20.43 5.5 18.965 6.965C17.5 8.43 17.5 10.785 17.5 15.5V55.5M52.5 55.5V29.25C52.5 25.7375 52.5 23.9825 51.6575 22.7225C51.2926 22.1763 50.8237 21.7074 50.2775 21.3425C49.0175 20.5 47.26 20.5 43.75 20.5M7.5 55.5V29.25C7.5 25.7375 7.5 23.9825 8.3425 22.7225C8.70739 22.1763 9.17632 21.7074 9.7225 21.3425C10.9825 20.5 12.74 20.5 16.25 20.5" stroke="white" stroke-width="4"/>
<path id="Vector_3" d="M30 55.5V48M25 13H35M25 20.5H35M25 28H35M25 35.5H35" stroke="white" stroke-width="4" stroke-linecap="round"/>
</g>
</g>
</svg>
