<svg width="32" height="32" viewBox="0 0 32 32" fill="none" xmlns="http://www.w3.org/2000/svg">
<g id="dashicons:portfolio">
<path id="Vector" d="M6.40001 7.9998H1.24801C0.65601 7.9998 0.0640101 8.51181 0.14401 9.3438L2.64001 25.3278C2.64001 25.3278 5.60001 13.5518 6.17601 10.7198C6.35201 9.8718 7.15201 9.5998 7.74401 9.5998H16C16 9.5998 14.88 6.2718 14.768 5.9038C14.576 5.1998 14.224 4.7998 13.52 4.7998H8.22401C7.64801 4.7998 7.10401 5.1678 6.94401 5.8238C6.80001 6.4638 6.40001 7.9998 6.40001 7.9998ZM14.208 7.9998H7.80801C7.80801 7.9998 8.48001 6.3998 9.20001 6.3998H12.608C13.376 6.3998 14.208 7.9998 14.208 7.9998ZM4.27201 25.9998C3.77601 26.7518 3.05601 27.1998 2.25601 27.1998H27.424C28.288 27.1998 28.896 26.7038 29.072 25.8718C29.776 22.3678 31.76 12.3678 31.76 12.3678C31.872 11.5678 31.28 11.1998 30.768 11.1998H25.6V8.84781C25.6 8.5918 25.184 7.9998 24.544 7.9998H18.528C17.696 7.9998 17.136 8.9278 17.136 8.9278L16 11.1998H8.94401C8.43201 11.1998 7.93601 11.5038 7.84001 11.9998C7.84001 11.9998 5.29601 22.7198 5.08801 23.7278C4.97601 24.3198 4.73601 25.3118 4.27201 25.9998ZM24.608 11.1998H17.6C17.6 11.1998 18.528 9.5998 19.408 9.5998H23.072C24.208 9.5998 24.608 11.1998 24.608 11.1998Z" fill="#002D57"/>
</g>
</svg>
