<svg width="61" height="60" viewBox="0 0 61 60" fill="none" xmlns="http://www.w3.org/2000/svg">
<g id="fluent:people-team-24-filled">
<path id="Vector" d="M37.385 25C39.8 25 41.76 26.96 41.76 29.375V41.2475C41.76 44.2318 40.5745 47.094 38.4642 49.2042C36.354 51.3145 33.4918 52.5 30.5075 52.5C27.5232 52.5 24.661 51.3145 22.5508 49.2042C20.4405 47.094 19.255 44.2318 19.255 41.2475V29.375C19.255 26.96 21.2125 25 23.63 25H37.385ZM18.3275 25C17.4242 26.0819 16.8822 27.4194 16.7775 28.825L16.7525 29.375V41.2475C16.7525 43.365 17.2325 45.37 18.0875 47.16C17.2608 47.385 16.3983 47.4983 15.5 47.5C14.1866 47.5 12.886 47.2413 11.6726 46.7386C10.4592 46.2359 9.35667 45.499 8.42805 44.5702C7.49943 43.6413 6.76289 42.5386 6.26049 41.3251C5.75809 40.1116 5.49967 38.8109 5.5 37.4975V29.375C5.50004 28.277 5.91293 27.2192 6.6567 26.4115C7.40047 25.6038 8.42075 25.1053 9.515 25.015L9.875 25H18.3275ZM42.6875 25H51.125C53.54 25 55.5 26.96 55.5 29.375V37.5C55.5003 39.0329 55.1483 40.5454 54.471 41.9206C53.7937 43.2957 52.8093 44.4968 51.5939 45.4309C50.3785 46.3651 48.9646 47.0073 47.4615 47.308C45.9584 47.6086 44.4062 47.5597 42.925 47.165C43.675 45.595 44.135 43.865 44.2375 42.035L44.26 41.2475V29.375C44.26 27.7125 43.6725 26.1875 42.6875 25ZM30.5 7.5C32.4891 7.5 34.3968 8.29018 35.8033 9.6967C37.2098 11.1032 38 13.0109 38 15C38 16.9891 37.2098 18.8968 35.8033 20.3033C34.3968 21.7098 32.4891 22.5 30.5 22.5C28.5109 22.5 26.6032 21.7098 25.1967 20.3033C23.7902 18.8968 23 16.9891 23 15C23 13.0109 23.7902 11.1032 25.1967 9.6967C26.6032 8.29018 28.5109 7.5 30.5 7.5ZM46.75 10C48.4076 10 49.9973 10.6585 51.1694 11.8306C52.3415 13.0027 53 14.5924 53 16.25C53 17.9076 52.3415 19.4973 51.1694 20.6694C49.9973 21.8415 48.4076 22.5 46.75 22.5C45.0924 22.5 43.5027 21.8415 42.3306 20.6694C41.1585 19.4973 40.5 17.9076 40.5 16.25C40.5 14.5924 41.1585 13.0027 42.3306 11.8306C43.5027 10.6585 45.0924 10 46.75 10ZM14.25 10C15.9076 10 17.4973 10.6585 18.6694 11.8306C19.8415 13.0027 20.5 14.5924 20.5 16.25C20.5 17.9076 19.8415 19.4973 18.6694 20.6694C17.4973 21.8415 15.9076 22.5 14.25 22.5C12.5924 22.5 11.0027 21.8415 9.83058 20.6694C8.65848 19.4973 8 17.9076 8 16.25C8 14.5924 8.65848 13.0027 9.83058 11.8306C11.0027 10.6585 12.5924 10 14.25 10Z" fill="#002D57"/>
</g>
</svg>
