<svg width="65" height="64" viewBox="0 0 65 64" fill="none" xmlns="http://www.w3.org/2000/svg">
<g id="vscode-icons:file-type-pdf2">
<path id="Vector" d="M48.6998 4.14355L59.8278 15.7436V59.8556H18.2578V59.9996H59.9698V15.8896L48.6998 4.14355Z" fill="#909090"/>
<path id="Vector_2" d="M48.5622 4H18.1162V59.856H59.8282V15.746L48.5622 4Z" fill="#F4F4F4"/>
<path id="Vector_3" d="M17.8098 7H5.02979V20.654H45.2298V7H17.8098Z" fill="#7A7B7C"/>
<path id="Vector_4" d="M45.444 20.4218H5.29004V6.75781H45.444V20.4218Z" fill="#DD2025"/>
<path id="Vector_5" d="M18.6042 9.06833H15.9902V18.6683H18.0462V15.4303L18.5002 15.4563C18.9415 15.4502 19.3788 15.3712 19.7942 15.2223C20.1595 15.0983 20.4952 14.9002 20.7802 14.6403C21.0726 14.3952 21.3022 14.0839 21.4502 13.7323C21.6527 13.1498 21.7244 12.5297 21.6602 11.9163C21.6488 11.478 21.572 11.0439 21.4322 10.6283C21.3063 10.3279 21.119 10.0572 20.8824 9.83331C20.6458 9.60945 20.3651 9.43746 20.0582 9.32833C19.7937 9.23034 19.5195 9.16062 19.2402 9.12033C19.0293 9.08598 18.8159 9.06859 18.6022 9.06833M18.2242 13.6563H18.0462V10.6963H18.4322C18.6026 10.684 18.7735 10.7102 18.9324 10.7729C19.0913 10.8355 19.2341 10.9331 19.3502 11.0583C19.5909 11.3804 19.7194 11.7723 19.7162 12.1743C19.7162 12.6663 19.7162 13.1123 19.2722 13.4263C18.9524 13.6025 18.5883 13.6837 18.2242 13.6563ZM25.5662 9.04233C25.3442 9.04233 25.1282 9.05833 24.9762 9.06433L24.5002 9.07633H22.9402V18.6763H24.7762C25.4778 18.6944 26.1762 18.5755 26.8322 18.3263C27.3605 18.1177 27.828 17.7801 28.1922 17.3443C28.5491 16.9066 28.804 16.3949 28.9382 15.8463C29.096 15.2262 29.1726 14.5882 29.1662 13.9483C29.2054 13.1926 29.1469 12.4351 28.9922 11.6943C28.8442 11.1497 28.5701 10.6475 28.1922 10.2283C27.8958 9.88935 27.5312 9.61674 27.1222 9.42833C26.7719 9.26593 26.4032 9.14639 26.0242 9.07233C25.8735 9.04762 25.7209 9.03625 25.5682 9.03833M25.2042 16.9123H25.0042V10.7843H25.0302C25.4426 10.7366 25.8598 10.8111 26.2302 10.9983C26.5016 11.215 26.7226 11.4879 26.8782 11.7983C27.0461 12.125 27.1429 12.4835 27.1622 12.8503C27.1802 13.2903 27.1622 13.6503 27.1622 13.9483C27.1696 14.2916 27.1476 14.6348 27.0962 14.9743C27.0333 15.3225 26.9194 15.6594 26.7582 15.9743C26.5761 16.268 26.3274 16.5147 26.0322 16.6943C25.7857 16.8543 25.4933 16.9288 25.2002 16.9063M35.3602 9.07633H30.5002V18.6763H32.5562V14.8683H35.1562V13.0843H32.5562V10.8603H35.3562V9.07633" fill="#464648"/>
<path id="Vector_6" d="M44.0619 40.51C44.0619 40.51 50.4379 39.354 50.4379 41.532C50.4379 43.71 46.4879 42.824 44.0619 40.51ZM39.3479 40.676C38.3347 40.8993 37.3474 41.227 36.4019 41.654L37.2019 39.854C38.0019 38.054 38.8319 35.6 38.8319 35.6C39.7841 37.2083 40.895 38.7171 42.1479 40.104C41.2047 40.2445 40.2699 40.4368 39.3479 40.68V40.676ZM36.8239 27.676C36.8239 25.778 37.4379 25.26 37.9159 25.26C38.3939 25.26 38.9319 25.49 38.9499 27.138C38.7939 28.7951 38.4469 30.4286 37.9159 32.006C37.1859 30.6826 36.8092 29.1934 36.8219 27.682L36.8239 27.676ZM27.5259 48.708C25.5699 47.538 31.6279 43.936 32.7259 43.82C32.7199 43.822 29.5739 49.932 27.5259 48.708ZM52.2999 41.79C52.2799 41.59 52.0999 39.376 48.1599 39.47C46.5176 39.4412 44.8759 39.557 43.2539 39.816C41.6816 38.2335 40.3283 36.4476 39.2299 34.506C39.9215 32.5046 40.3406 30.4192 40.4759 28.306C40.4179 25.906 39.8439 24.53 38.0039 24.55C36.1639 24.57 35.8959 26.18 36.1379 28.576C36.3747 30.1862 36.8219 31.7583 37.4679 33.252C37.4679 33.252 36.6179 35.898 35.4939 38.53C34.3699 41.162 33.6019 42.542 33.6019 42.542C31.647 43.1776 29.8069 44.123 28.1519 45.342C26.5039 46.876 25.8339 48.054 26.7019 49.232C27.4499 50.248 30.0679 50.478 32.4079 47.412C33.6491 45.8269 34.7848 44.162 35.8079 42.428C35.8079 42.428 39.3759 41.45 40.4859 41.182C41.5959 40.914 42.9379 40.702 42.9379 40.702C42.9379 40.702 46.1959 43.98 49.3379 43.864C52.4799 43.748 52.3279 41.986 52.3079 41.794" fill="#DD2025"/>
<path id="Vector_7" d="M48.4082 4.1543V15.9003H59.6742L48.4082 4.1543Z" fill="#909090"/>
<path id="Vector_8" d="M48.562 4V15.746H59.828L48.562 4Z" fill="#F4F4F4"/>
<path id="Vector_9" d="M18.4499 8.91403H15.8359V18.514H17.8999V15.278L18.3559 15.304C18.7972 15.2979 19.2345 15.2189 19.6499 15.07C20.0152 14.946 20.3509 14.7479 20.6359 14.488C20.9261 14.2422 21.1537 13.931 21.2999 13.58C21.5024 12.9975 21.5741 12.3774 21.5099 11.764C21.4985 11.3257 21.4217 10.8916 21.2819 10.476C21.156 10.1756 20.9687 9.90487 20.7321 9.68101C20.4956 9.45716 20.2148 9.28516 19.9079 9.17603C19.6422 9.07709 19.3666 9.00669 19.0859 8.96603C18.875 8.93168 18.6617 8.91429 18.4479 8.91403M18.0699 13.502H17.8919V10.542H18.2799C18.4503 10.5297 18.6212 10.5559 18.7801 10.6186C18.939 10.6812 19.0818 10.7788 19.1979 10.904C19.4386 11.2261 19.5671 11.618 19.5639 12.02C19.5639 12.512 19.5639 12.958 19.1199 13.272C18.8002 13.4482 18.436 13.5274 18.0719 13.5M25.4119 8.88803C25.1899 8.88803 24.9739 8.90403 24.8219 8.91003L24.3519 8.92203H22.7919V18.522H24.6279C25.3295 18.5401 26.0279 18.4212 26.6839 18.172C27.2122 17.9634 27.6797 17.6258 28.0439 17.19C28.4008 16.7523 28.6557 16.2406 28.7899 15.692C28.9477 15.0719 29.0243 14.4339 29.0179 13.794C29.0571 13.0383 28.9986 12.2808 28.8439 11.54C28.6959 10.9954 28.4218 10.4932 28.0439 10.074C27.7475 9.73505 27.3829 9.46244 26.9739 9.27403C26.6236 9.11163 26.2549 8.9921 25.8759 8.91803C25.7252 8.89333 25.5726 8.88195 25.4199 8.88403M25.0559 16.758H24.8559V10.63H24.8819C25.2943 10.5824 25.7115 10.6568 26.0819 10.844C26.3533 11.0607 26.5743 11.3336 26.7299 11.644C26.8978 11.9707 26.9946 12.3292 27.0139 12.696C27.0319 13.136 27.0139 13.496 27.0139 13.794C27.0213 14.1373 26.9993 14.4805 26.9479 14.82C26.885 15.1682 26.7711 15.5051 26.6099 15.82C26.4278 16.1137 26.1791 16.3604 25.8839 16.54C25.6374 16.7 25.345 16.7745 25.0519 16.752M35.2059 8.92203H30.3459V18.522H32.4019V14.714H35.0019V12.93H32.4019V10.706H35.2019V8.92203" fill="white"/>
</g>
</svg>
