<svg width="49" height="48" viewBox="0 0 49 48" fill="none" xmlns="http://www.w3.org/2000/svg">
<g id="mingcute:announcement-line">
<g id="Group">
<path id="Vector" fill-rule="evenodd" clip-rule="evenodd" d="M38.4984 9.48196V16C39.2863 16 40.0665 16.1552 40.7945 16.4567C41.5225 16.7582 42.1839 17.2002 42.741 17.7573C43.2982 18.3145 43.7401 18.9759 44.0417 19.7039C44.3432 20.4318 44.4984 21.212 44.4984 22C44.4984 22.7879 44.3432 23.5681 44.0417 24.2961C43.7401 25.024 43.2982 25.6854 42.741 26.2426C42.1839 26.7998 41.5225 27.2417 40.7945 27.5432C40.0665 27.8448 39.2863 28 38.4984 28V34C38.4984 37.296 34.7364 39.178 32.0984 37.2L27.9784 34.108C25.776 32.4568 23.2119 31.3543 20.4984 30.892V36.58C20.4986 37.8874 20.0262 39.1509 19.1682 40.1375C18.3102 41.1241 17.1245 41.7673 15.8296 41.9485C14.5348 42.1298 13.218 41.8368 12.1222 41.1237C11.0263 40.4105 10.2251 39.3253 9.8664 38.068L6.7264 27.076C5.59643 25.7415 4.86107 24.1184 4.60297 22.389C4.34487 20.6596 4.57426 18.8924 5.26537 17.2862C5.95647 15.68 7.08188 14.2984 8.5151 13.2967C9.94831 12.2951 11.6325 11.713 13.3784 11.616L19.4144 11.28C22.3677 11.1159 25.2398 10.2529 27.7944 8.76196L32.4824 6.02596C35.1504 4.47196 38.4984 6.39396 38.4984 9.48196ZM11.7664 30.156L13.7124 36.97C13.806 37.2998 14.0159 37.5846 14.3031 37.7718C14.5904 37.959 14.9357 38.0359 15.2753 37.9884C15.6148 37.9408 15.9257 37.7721 16.1505 37.5132C16.3754 37.2543 16.4989 36.9228 16.4984 36.58V30.56L13.3784 30.386C12.8357 30.3532 12.2966 30.2763 11.7664 30.156ZM34.4984 9.48196L29.8084 12.22C26.9603 13.8834 23.7826 14.9033 20.4984 15.208V26.846C24.0724 27.338 27.4744 28.732 30.3784 30.908L34.4984 34V9.48196ZM16.4984 15.448L13.5984 15.608C12.2493 15.6824 10.9771 16.26 10.033 17.2266C9.08893 18.1932 8.5415 19.4786 8.4988 20.8291C8.45611 22.1796 8.92124 23.497 9.8024 24.5213C10.6835 25.5456 11.9167 26.2024 13.2584 26.362L13.5984 26.392L16.4984 26.552V15.448ZM38.4984 20V24C39.0082 23.9994 39.4985 23.8042 39.8691 23.4543C40.2398 23.1043 40.4629 22.6261 40.4927 22.1172C40.5226 21.6083 40.357 21.1072 40.0299 20.7163C39.7027 20.3254 39.2386 20.0742 38.7324 20.014L38.4984 20Z" fill="#194C45"/>
</g>
</g>
</svg>
