<svg width="499" height="924" viewBox="0 0 499 924" fill="none" xmlns="http://www.w3.org/2000/svg">
<path d="M274.181 -3H272.181V-1V525.284C272.181 585.216 258.69 630.692 231.99 662.006L231.989 662.006C205.342 693.285 166.566 709.034 115.345 709.034C64.1241 709.034 25.3683 693.285 -1.28418 662.006L-1.28448 662.006C-27.9794 630.692 -41.476 585.215 -41.476 525.284V-1V-3H-43.476H-263H-265V-1V525.284C-265 611.529 -249.041 684.529 -216.996 744.223C-184.979 803.895 -140.795 848.493 -84.4378 877.917C-28.1535 907.329 36.7343 922 110.187 922C183.646 922 249.59 907.103 308.024 877.281L307.114 875.5L308.024 877.281C366.499 847.425 412.624 802.866 446.371 743.623C480.161 684.364 497 611.543 497 525.284V-1V-3H495H274.181Z" stroke="#929292" stroke-width="4" stroke-miterlimit="10"/>
</svg>
