<svg width="45" height="45" viewBox="0 0 45 45" fill="none" xmlns="http://www.w3.org/2000/svg">
<g id="Bahrain">
<path id="Vector" d="M18.4945 42.9888L24.8434 39.1889L17.9424 35.0437L24.8434 30.8985L17.9424 26.7532L24.8434 22.608L17.9424 18.4627L24.8434 14.3175L17.9424 10.1722L24.8434 6.02698L18.4945 2.22717C8.764 3.88527 1.37988 12.383 1.37988 22.608C1.37988 32.8329 8.764 41.3307 18.4945 42.9888Z" fill="#F9F9F9"/>
<path id="Vector_2" d="M22.083 1.88171C20.8408 1.88171 19.6676 2.01989 18.4945 2.22715L24.8434 6.02696L17.9424 10.1722L24.8434 14.3174L17.9424 18.4627L24.8434 22.6079L17.9424 26.7532L24.8434 30.8984L17.9424 35.0437L24.8434 39.1889L18.4945 42.9887C19.6676 43.196 20.8408 43.3342 22.083 43.3342C33.5387 43.3342 42.7861 34.0765 42.7861 22.6079C42.7861 11.1394 33.5387 1.88171 22.083 1.88171Z" fill="#C70020"/>
</g>
</svg>
