<svg width="45" height="46" viewBox="0 0 45 46" fill="none" xmlns="http://www.w3.org/2000/svg">
<g id="egypt">
<path id="Vector" d="M22.5007 2.30322C13.4603 2.30322 5.80013 8.10657 2.9707 16.1207H42.0306C39.2012 8.10657 31.541 2.30322 22.5007 2.30322Z" fill="#CC001B"/>
<path id="Vector_2" d="M22.5007 43.7557C31.541 43.7557 39.2012 38.0215 42.0306 29.9382H2.9707C5.80013 38.0215 13.4603 43.7557 22.5007 43.7557Z" fill="black"/>
<path id="Vector_3" d="M2.97005 16.1207C2.21094 18.2624 1.79688 20.6114 1.79688 23.0295C1.79688 25.4475 2.21094 27.7965 2.97005 29.9382H42.0299C42.7891 27.7965 43.2031 25.4475 43.2031 23.0295C43.2031 20.6114 42.7891 18.2624 42.0299 16.1207H2.97005Z" fill="#F9F9F9"/>
<g id="Group">
<path id="Vector_4" d="M21.5346 18.2624C21.7416 18.1242 21.8796 18.2624 22.0177 18.4006C22.0867 18.5388 22.0867 18.9533 21.9487 19.4369C21.8796 19.7133 21.6726 19.9896 21.5346 20.1969C21.8106 20.1969 22.1557 20.1278 22.5007 19.9896C22.8458 20.1278 23.1218 20.1969 23.4669 20.1969C23.3289 19.9205 23.1908 19.3678 23.2598 18.9533C23.2598 18.3315 23.1908 18.1242 23.0528 17.9861C22.9148 17.8479 22.5697 17.7788 22.3627 17.7788C22.2247 17.7788 22.2247 17.8479 22.2247 17.8479C21.9487 17.7788 21.7416 17.7788 21.6036 17.8479C21.4656 17.9861 21.4656 18.3315 21.5346 18.2624Z" fill="white"/>
<path id="Vector_5" d="M26.1579 20.335C26.0199 19.575 25.2607 19.7823 24.6396 20.1277C24.3636 20.2659 24.0876 20.4041 23.8115 20.4041H23.6045C23.2594 20.4041 22.8454 20.335 22.5003 20.1968C22.1553 20.335 21.7412 20.4041 21.3962 20.4041H21.2581C20.9131 20.4041 20.637 20.2659 20.361 20.0586C19.8089 19.7823 19.0498 19.575 18.8428 20.2659C18.9808 20.1968 19.1188 20.0586 19.1878 20.0586L18.9118 26.691L19.0498 26.5529L19.3258 20.1277C19.3949 20.1968 19.6709 20.4732 19.7399 20.4732L19.5329 26.0692L19.7399 25.862L19.9469 20.5422C20.0159 20.6113 20.223 20.7495 20.292 20.8186L20.085 25.4475L20.637 24.9638L21.1891 23.0985C20.7061 22.0622 20.7751 21.164 20.7751 21.164H20.9131C21.2581 21.164 22.0173 20.9568 22.3623 20.7495C22.4313 20.7495 22.4313 20.6804 22.5003 20.6804C22.5003 20.7495 22.5693 20.7495 22.6383 20.8186C22.9834 21.0259 23.7425 21.2331 24.0876 21.2331H24.2256C24.2256 21.2331 24.2946 22.1313 23.8115 23.1676L24.2946 24.9638L24.8467 25.4475L24.6396 20.8877C24.7087 20.8186 24.8467 20.6804 24.9847 20.6113L25.1917 25.7929L25.3988 26.0002L25.1917 20.4732C25.2607 20.4041 25.5368 20.1968 25.6058 20.1277L25.8818 26.4838L26.0199 26.6219L25.7438 20.0586C25.8128 20.1277 26.0199 20.2659 26.1579 20.335Z" fill="white"/>
<path id="Vector_6" d="M21.8789 21.4404V24.1348C21.8789 24.1348 21.8789 24.2039 21.9479 24.2039C22.0169 24.3421 22.1549 24.4112 22.224 24.5494L22.431 24.7566L22.638 24.5494L22.9831 24.2039V21.5786C22.776 21.5095 22.569 21.4404 22.431 21.3022C22.362 21.2332 22.1549 21.3023 21.8789 21.4404Z" fill="white"/>
</g>
<path id="Vector_7" d="M25.4674 27.1056C25.4674 26.7602 25.1224 26.7602 24.8464 26.8293C24.7773 26.8293 24.7773 26.8293 24.7083 26.8983L24.2943 25.3784L26.5716 27.5892L26.2956 20.4041C26.2266 19.2987 25.3294 19.5751 24.7083 19.9896C24.3633 20.1969 24.0872 20.335 23.7422 20.335C23.2591 19.506 23.5352 18.4006 23.1901 18.1242C23.0521 17.9861 22.569 17.7788 22.224 17.7788C22.0169 17.7788 22.0859 17.917 22.0859 17.917C21.7409 17.8479 21.4648 17.8479 21.3268 17.9861C21.1888 18.0552 21.3268 18.746 21.3958 18.6079C21.6029 18.4006 21.6719 18.4697 21.8099 18.6769C21.9479 18.8842 21.6719 19.7133 21.3268 20.335C20.9128 20.335 20.5677 20.1969 20.2227 19.9896C19.5326 19.5751 18.6354 19.3678 18.6354 20.4041L18.3594 27.5201L20.6367 25.3784L20.2227 26.8293C20.1536 26.8293 20.1536 26.8293 20.0846 26.7602C19.8086 26.6911 19.4635 26.6911 19.4635 27.0365C19.0495 26.9674 18.9115 27.5892 19.3255 27.7274C19.3255 27.9347 19.3255 28.0728 19.6016 28.0728C20.2227 28.2801 21.3268 28.3492 22.431 28.3492C23.5352 28.3492 24.6393 28.2801 25.2604 28.0728C25.5365 28.0037 25.5365 27.8656 25.5365 27.7274C26.0885 27.5892 25.8815 26.9674 25.4674 27.1056ZM21.9479 24.1349C21.9479 24.0658 21.9479 24.0658 21.9479 24.1349L21.8789 24.0658V21.4404C22.1549 21.3714 22.362 21.3023 22.5 21.1641C22.638 21.3023 22.8451 21.3714 23.0521 21.4404V24.0658C22.9141 24.2039 22.8451 24.3421 22.707 24.4112L22.5 24.6185L22.293 24.4112C22.1549 24.3421 22.0859 24.2039 21.9479 24.1349ZM21.9479 19.506C22.0859 19.0224 22.0859 18.6079 22.0169 18.4697C21.8789 18.3315 21.7409 18.1933 21.5339 18.3315C21.4648 18.4006 21.4648 18.0552 21.6029 17.9861C21.7409 17.917 21.9479 17.917 22.224 17.9861C22.224 17.9861 22.224 17.8479 22.362 17.917C22.569 17.917 22.9831 18.0552 23.0521 18.1242C23.1211 18.1933 23.2591 18.4697 23.2591 19.0915C23.2591 19.506 23.3281 20.0587 23.4661 20.335C23.1901 20.335 22.8451 20.266 22.5 20.1278C22.1549 20.266 21.8789 20.335 21.5339 20.335C21.6719 20.0587 21.8789 19.7823 21.9479 19.506ZM20.1536 25.6548L20.3607 21.0259C20.2917 20.9568 20.1536 20.8187 20.0156 20.7496L19.7396 26.0002L19.5326 26.2075L19.7396 20.6114C19.6706 20.5423 19.3945 20.335 19.3255 20.266L19.0495 26.6911L18.9115 26.8293L19.1875 20.1969C19.1185 20.1969 18.9115 20.266 18.8424 20.4041C19.0495 19.7133 19.8086 19.9205 20.3607 20.266C20.6367 20.4732 20.9818 20.5423 21.2578 20.6114H21.3958C21.7409 20.6114 22.0859 20.5423 22.5 20.4041C22.9141 20.5423 23.2591 20.6114 23.6042 20.6114H23.8112C24.0872 20.5423 24.3633 20.4732 24.6393 20.335C25.2604 19.9896 26.0195 19.7823 26.1576 20.5423C26.0195 20.4732 25.8125 20.335 25.7435 20.335L26.0195 26.8983L25.8815 26.7602L25.6055 20.266C25.5365 20.335 25.2604 20.6114 25.1914 20.6114L25.3984 26.1384L25.1914 25.9311L24.9844 20.7496C24.9154 20.8187 24.7083 20.9568 24.6393 21.0259L24.8464 25.5857L24.2943 25.1021L23.8112 23.3058C24.2943 22.2695 24.2253 21.3714 24.2253 21.3714H24.0872C23.7422 21.3714 22.9831 21.2332 22.638 20.9568C22.569 20.9568 22.569 20.8877 22.5 20.8187C22.5 20.8187 22.431 20.8877 22.362 20.8877C22.0169 21.095 21.2578 21.3023 20.9128 21.3023H20.7747C20.7747 21.3023 20.7057 22.2004 21.1888 23.2367L20.6367 25.1021L20.1536 25.6548ZM22.5 27.0365H21.7409L22.224 24.6876C22.293 24.7566 22.362 24.8257 22.5 24.8948C22.569 24.8257 22.707 24.7566 22.776 24.6876L23.3281 27.0365H22.5Z" fill="#FFC300"/>
</g>
</svg>
