<svg width="45" height="46" viewBox="0 0 45 46" fill="none" xmlns="http://www.w3.org/2000/svg">
<g id="Jordan">
<path id="Vector" d="M5.71484 16.179H42.3188C39.4493 8.06031 31.6806 2.18127 22.5121 2.18127C15.6532 2.18127 9.56421 5.47073 5.71484 10.5799V16.179Z" fill="black"/>
<path id="Vector_2" d="M42.3188 16.179H5.71484V30.1767H42.3188C43.0887 28.007 43.5086 25.6274 43.5086 23.1778C43.5086 20.7282 43.0887 18.3486 42.3188 16.179Z" fill="#F9F9F9"/>
<path id="Vector_3" d="M5.71484 30.1766V35.7757C9.56421 40.8849 15.6532 44.1743 22.5121 44.1743C31.6806 44.1743 39.4493 38.3653 42.3188 30.1766H5.71484Z" fill="#08642A"/>
<path id="Vector_4" d="M5.71493 10.5798C3.05537 14.0793 1.51562 18.4185 1.51562 23.1778C1.51562 27.937 3.05537 32.2763 5.71493 35.7757L22.5122 23.1778L5.71493 10.5798Z" fill="#CC001B"/>
<path id="Vector_5" d="M7.81516 21.568L8.51505 19.6783L9.21493 21.568L10.9646 20.7282L10.1248 22.4779L12.0145 23.1778L10.1248 23.8777L10.9646 25.6274L9.21493 24.7875L8.51505 26.6772L7.81516 24.7875L6.06545 25.6274L6.90531 23.8777L5.01562 23.1778L6.90531 22.4779L6.06545 20.7282L7.81516 21.568Z" fill="white"/>
</g>
</svg>
