<svg width="45" height="46" viewBox="0 0 45 46" fill="none" xmlns="http://www.w3.org/2000/svg">
<g id="kuwait">
<path id="Vector" d="M41.8009 30.0041C38.0096 30.0041 34.9076 26.8918 34.9076 23.0879H7.88574V37.7502C11.6081 41.4849 16.7781 43.8365 22.4996 43.8365C31.5299 43.8365 39.1815 38.0269 42.0077 30.0041H41.8009Z" fill="#CC001B"/>
<path id="Vector_2" d="M41.8009 16.1716H42.0077C39.1815 8.14883 31.5299 2.33923 22.4996 2.33923C16.7781 2.33923 11.6081 4.69074 7.88574 8.42548V23.0878H34.9076C34.9076 19.2839 38.0096 16.1716 41.8009 16.1716Z" fill="#08642A"/>
<path id="Vector_3" d="M42.0077 16.1716H7.88574V30.004H42.0077C42.766 27.86 43.1796 25.5085 43.1796 23.0878C43.1796 20.6672 42.766 18.3156 42.0077 16.1716Z" fill="#F9F9F9"/>
<path id="Vector_4" d="M7.88644 8.42554C4.16405 12.1603 1.82031 17.3474 1.82031 23.0879C1.82031 28.8283 4.16405 34.0154 7.88644 37.7502L15.607 30.004V16.1717L7.88644 8.42554Z" fill="black"/>
</g>
</svg>
