<svg width="45" height="46" viewBox="0 0 45 46" fill="none" xmlns="http://www.w3.org/2000/svg">
<g id="lebanon">
<path id="Vector" d="M1.79688 23.0295C1.79688 27.1056 2.97005 30.9054 4.97135 34.0834H39.9596C41.9609 30.9054 43.1341 27.1056 43.1341 23.0295C43.1341 18.9533 41.9609 15.1535 39.9596 11.9755H4.97135C2.97005 15.1535 1.79688 18.9533 1.79688 23.0295Z" fill="#F9F9F9"/>
<path id="Vector_2" d="M40.029 11.9755C36.3714 6.17212 29.8844 2.30322 22.5003 2.30322C15.1162 2.30322 8.62923 6.17212 4.97168 11.9755H40.029ZM4.97168 34.0834C8.62923 39.8868 15.1162 43.7557 22.5003 43.7557C29.8844 43.7557 36.3714 39.8868 40.029 34.0834H4.97168Z" fill="#CC001B"/>
<path id="Vector_3" d="M16.6348 32.0108C16.6348 32.0108 21.1204 29.0401 26.3652 31.6654V30.56C26.3652 30.56 21.9486 27.6583 25.6751 27.2438C29.4017 26.8293 31.472 28.7637 31.472 28.7637V27.7965C31.472 27.7965 25.123 24.4112 30.5749 25.7239V24.7566C30.5749 24.7566 25.6751 23.0295 28.6426 23.0295H29.8848V22.4077C29.8848 22.4077 24.847 21.7168 29.0566 21.4404V20.9568C29.0566 20.9568 21.4655 17.4334 27.1243 18.8151V18.1243C27.1243 18.1243 24.3639 17.5716 26.5033 17.2952C26.5033 17.2952 25.3991 15.8444 23.6048 15.8444C21.8105 15.8444 22.0866 14.0481 22.0866 14.0481L19.8092 16.4662C19.8092 16.4662 21.3965 16.328 18.8431 17.6406C18.8431 17.6406 20.9824 17.8479 16.1517 20.6805C16.1517 20.6805 17.946 19.9896 17.946 21.1641C17.946 22.3386 14.7715 23.9276 14.7715 23.9276L15.0475 24.6876C15.0475 24.6876 17.2559 22.9604 17.1178 24.1349C16.9798 25.3093 13.5293 27.1056 13.5293 27.1056L13.8743 27.6583C13.8743 27.6583 16.7038 26.0002 16.7728 26.6911C16.7728 26.6911 17.1868 27.1747 14.4264 28.0728L14.7715 28.6255C14.7715 28.6255 18.9811 26.5529 20.0853 28.0728C21.1895 29.5928 16.5658 31.1818 16.5658 31.1818L16.6348 32.0108Z" fill="#089041"/>
<g id="Group">
<path id="Vector_4" d="M20.9814 19.9206C21.3245 19.9206 21.6025 19.6422 21.6025 19.2988C21.6025 18.9554 21.3245 18.677 20.9814 18.677C20.6384 18.677 20.3604 18.9554 20.3604 19.2988C20.3604 19.6422 20.6384 19.9206 20.9814 19.9206Z" fill="#F9F9F9"/>
<path id="Vector_5" d="M23.4658 20.9568C23.8088 20.9568 24.0869 20.6784 24.0869 20.335C24.0869 19.9916 23.8088 19.7133 23.4658 19.7133C23.1228 19.7133 22.8447 19.9916 22.8447 20.335C22.8447 20.6784 23.1228 20.9568 23.4658 20.9568Z" fill="#F9F9F9"/>
<path id="Vector_6" d="M18.3594 24.2731C18.7024 24.2731 18.9805 23.9947 18.9805 23.6513C18.9805 23.3079 18.7024 23.0295 18.3594 23.0295C18.0164 23.0295 17.7383 23.3079 17.7383 23.6513C17.7383 23.9947 18.0164 24.2731 18.3594 24.2731Z" fill="#F9F9F9"/>
<path id="Vector_7" d="M25.2607 24.8948C25.6038 24.8948 25.8818 24.6164 25.8818 24.273C25.8818 23.9296 25.6038 23.6512 25.2607 23.6512C24.9177 23.6512 24.6396 23.9296 24.6396 24.273C24.6396 24.6164 24.9177 24.8948 25.2607 24.8948Z" fill="#F9F9F9"/>
<path id="Vector_8" d="M27.2617 25.5166C27.6047 25.5166 27.8828 25.2383 27.8828 24.8949C27.8828 24.5515 27.6047 24.2731 27.2617 24.2731C26.9187 24.2731 26.6406 24.5515 26.6406 24.8949C26.6406 25.2383 26.9187 25.5166 27.2617 25.5166Z" fill="#F9F9F9"/>
<path id="Vector_9" d="M19.1182 21.4405C19.4612 21.4405 19.7393 21.1621 19.7393 20.8187C19.7393 20.4753 19.4612 20.1969 19.1182 20.1969C18.7751 20.1969 18.4971 20.4753 18.4971 20.8187C18.4971 21.1621 18.7751 21.4405 19.1182 21.4405Z" fill="#F9F9F9"/>
<path id="Vector_10" d="M22.6377 23.6513C22.9807 23.6513 23.2588 23.3729 23.2588 23.0295C23.2588 22.6861 22.9807 22.4077 22.6377 22.4077C22.2947 22.4077 22.0166 22.6861 22.0166 23.0295C22.0166 23.3729 22.2947 23.6513 22.6377 23.6513Z" fill="#F9F9F9"/>
</g>
</g>
</svg>
