<svg width="45" height="45" viewBox="0 0 45 45" fill="none" xmlns="http://www.w3.org/2000/svg">
<g id="oman">
<path id="Vector" d="M22.0837 1.88171C19.6683 1.88171 17.3219 2.29624 15.1826 3.0562V15.6992H41.6136C38.7842 7.68506 31.124 1.88171 22.0837 1.88171Z" fill="#F9F9F9"/>
<path id="Vector_2" d="M41.613 15.6993H15.182V3.05627C7.17676 5.88886 1.37988 13.5576 1.37988 22.608C1.37988 31.6585 7.17676 39.3272 15.182 42.1598V29.5168H41.613C42.3721 27.375 42.7861 25.0261 42.7861 22.608C42.7861 20.19 42.3721 17.841 41.613 15.6993Z" fill="#CC001B"/>
<path id="Vector_3" d="M15.1826 29.5167V42.1597C17.3219 42.9197 19.6683 43.3342 22.0837 43.3342C31.124 43.3342 38.7842 37.6 41.6136 29.5167H15.1826Z" fill="#699635"/>
<path id="Vector_4" d="M13.1813 15.9756L13.0433 16.0447L11.9391 15.0775L10.6969 13.6957C10.766 13.5575 10.766 13.2121 10.6969 13.0048L10.904 12.7976H11.111C11.18 12.9358 11.318 13.0739 11.5251 13.0739C11.7321 13.0739 11.8701 13.0048 11.9391 12.7976H12.2152V13.143H14.0785V12.1067H12.2152V12.4521H11.9391C11.8701 12.314 11.7321 12.1758 11.5941 12.1758L11.6631 12.1067L13.1813 8.99778L12.9743 8.79051L10.835 11.6922L10.973 11.8304L10.835 12.1067H10.4899L10.4209 11.9685H10.6969V11.7613L10.4899 11.6922V11.2777H10.766L10.835 11.0704L10.2829 10.9322V9.55048L10.6969 9.06686L10.0068 8.58325L9.31673 9.06686L9.73079 9.55048V10.9322L9.17871 11.0704L9.24772 11.2777H9.52376V11.6922L9.31673 11.7613V11.9685H9.59277L9.52376 12.1067H9.17871L9.04069 11.8304L9.17871 11.6922L7.03939 8.79051L6.90137 8.8596L8.4196 11.9685L8.48861 12.0376C8.35059 12.0376 8.21257 12.1758 8.14356 12.314H7.86751V11.9685H5.86621V13.0048H7.72949V12.6594H8.00553C8.07454 12.7976 8.21257 12.9358 8.4196 12.9358C8.62663 12.9358 8.76465 12.8667 8.83366 12.6594H9.04069L9.24772 12.9358V13.0739H8.97168V13.4194L7.31543 13.5575L7.24642 13.4194C7.24642 13.4194 6.34928 13.5575 6.21126 13.7648V13.9721C6.34928 14.1793 7.24642 14.4557 7.24642 14.4557V14.3866C7.24642 14.3866 7.86751 14.5248 8.55762 14.5939L8.14356 15.0775L7.03939 16.0447L6.90137 15.9756L5.93522 16.9428L5.86621 17.081L6.97038 16.7356L7.72949 16.1829L7.59147 16.1138L9.38574 14.5939H9.52376C9.73079 14.5939 10.1449 14.4557 10.2829 14.3175L10.4899 14.5248L12.3532 16.1138L12.2152 16.1829L12.9743 16.7356L14.0785 17.081L14.1475 16.9428L13.1813 15.9756Z" fill="white"/>
</g>
</svg>
