<svg width="47" height="47" viewBox="0 0 47 47" fill="none" xmlns="http://www.w3.org/2000/svg">
<g id="Palestine">
<path id="Vector" d="M6.56055 16.5861H44.0117C41.0758 8.27951 33.1273 2.2644 23.7466 2.2644C16.7289 2.2644 10.499 5.63 6.56055 10.8574V16.5861Z" fill="black"/>
<path id="Vector_2" d="M44.0117 16.5861H6.56055V30.9077H44.0117C44.7994 28.6879 45.2291 26.2532 45.2291 23.7469C45.2291 21.2406 44.7994 18.8059 44.0117 16.5861Z" fill="#F9F9F9"/>
<path id="Vector_3" d="M6.56055 30.9078V36.6365C10.499 41.8639 16.7289 45.2295 23.7466 45.2295C33.1273 45.2295 41.0758 39.286 44.0117 30.9078H6.56055Z" fill="#08642A"/>
<path id="Vector_4" d="M6.56115 10.8574C3.84003 14.4378 2.26465 18.8776 2.26465 23.7469C2.26465 28.6163 3.84003 33.056 6.56115 36.6364L23.7472 23.7469L6.56115 10.8574Z" fill="#CC001B"/>
</g>
</svg>
