<svg width="45" height="46" viewBox="0 0 45 46" fill="none" xmlns="http://www.w3.org/2000/svg">
<g id="saudi-arabia">
<path id="Vector" d="M22.5 43.7557C33.934 43.7557 43.2031 34.4762 43.2031 23.0294C43.2031 11.5827 33.934 2.30322 22.5 2.30322C11.066 2.30322 1.79688 11.5827 1.79688 23.0294C1.79688 34.4762 11.066 43.7557 22.5 43.7557Z" fill="#146938"/>
<g id="Group">
<path id="Vector_2" d="M22.2939 19.3678C22.2249 18.7461 22.57 18.1243 23.1911 18.2624C23.6742 18.3315 24.2262 18.8151 23.9502 19.2988C23.5361 20.0587 22.432 20.0587 21.7419 20.4732C21.8109 20.8878 23.8122 20.4042 24.1572 20.4042C24.5023 20.4042 24.8473 20.5423 24.6403 20.9569C24.4333 21.3714 23.7432 21.3714 23.3291 21.4405C22.915 21.5096 22.2249 21.5096 22.0179 21.855C21.6038 22.4077 22.432 22.4768 22.708 22.615C23.3981 22.9604 22.2939 23.3058 22.0179 23.2367C20.9827 23.0295 20.7757 22.4768 20.1546 21.7859C19.5335 22.615 17.6012 24.4803 17.1872 22.5459C16.4971 22.8222 15.807 23.1677 15.0479 23.2367C15.3929 22.7531 16.083 22.5459 16.6351 22.2695C17.3252 21.9241 17.3252 21.3023 17.7393 20.7496C17.8773 20.9569 17.7393 21.2332 17.8083 21.5096C18.3604 21.2332 19.0505 20.6805 18.7744 19.9896C18.7744 19.9205 17.9463 18.2624 18.6364 18.5388C19.2575 18.8151 19.0505 19.4369 19.1885 19.9205C19.3955 20.8187 18.9814 21.3023 18.2913 21.855C18.0153 22.0623 17.2562 22.8913 18.1533 22.8913C18.7744 22.8913 19.3265 22.2004 19.6715 21.7859C20.0856 21.2332 19.9476 20.6805 19.6715 20.0587C19.4645 19.5751 18.9814 18.5388 19.6025 18.1934C20.0856 18.9533 20.2926 19.8515 20.4997 20.7496C20.6377 21.5096 20.7757 22.2695 21.6038 22.4768C21.5348 21.9241 21.8799 21.5096 22.363 21.3023C22.0179 21.0259 20.0856 21.3714 20.8447 20.3351C20.9137 19.8515 22.2939 19.6442 22.2939 19.3678Z" fill="white"/>
<path id="Vector_3" d="M11.7351 21.9242C12.0802 22.8914 13.2534 22.5459 13.9435 22.2696C15.0476 21.7169 15.0476 20.8878 15.0476 19.7824C14.6336 19.9897 14.7026 20.7497 14.5646 21.0951C14.2885 21.6478 13.3914 22.1314 12.7703 22.0623C11.8732 21.9242 11.4591 20.4042 12.1492 19.8515C12.2872 20.3351 11.9422 21.3715 12.7703 21.4405C13.3914 21.5096 14.6336 20.7497 14.4265 20.0588C13.5984 20.3351 13.1153 20.0588 13.3914 19.1607C13.5984 18.3316 14.4265 18.9534 14.7716 19.3679C16.0828 18.608 13.7364 15.7063 15.1166 14.9463C15.3927 15.4299 15.8067 16.0517 15.4617 16.5353C15.0476 17.088 15.4617 18.2625 15.5307 18.8843C16.2208 18.2625 15.6687 19.3679 16.2208 19.437C16.5659 19.5061 16.7039 18.608 16.9109 18.608C16.9799 18.8152 16.9799 19.437 17.325 19.3679C17.739 19.2297 17.256 18.677 17.67 18.5389C17.808 18.8843 17.739 19.9206 17.256 19.8515C16.8419 19.7824 16.9109 19.5061 16.4278 19.7824C16.0138 19.9897 15.8758 19.7824 15.5997 19.5752C15.5307 20.4042 15.8067 21.3024 15.3237 22.0623C14.9096 22.6841 14.0815 23.0296 13.3914 23.1677C11.5971 23.5132 11.114 21.7169 11.7351 20.2661C11.8732 20.6806 11.5971 21.4405 11.7351 21.9242ZM28.5737 22.2696C28.9187 23.1677 29.6088 21.3024 29.8159 21.026C30.3679 20.197 31.1961 22.3387 31.5411 20.9569C31.7482 20.0588 31.4721 19.1607 31.4031 18.2625C31.3341 17.6407 31.1271 17.088 30.713 16.6044C30.2989 16.0517 29.8849 15.5681 30.0919 14.8772C30.782 15.1536 30.782 15.7063 31.1271 16.259C31.1961 15.8445 30.92 15.2918 31.1961 14.9463C31.5411 14.4627 31.8172 15.7754 31.8172 15.9135C31.8862 16.259 31.5411 16.3972 31.7482 16.9499C31.8862 17.3644 32.1622 17.7789 32.4383 18.1243C32.3692 17.7098 31.7482 14.8772 32.4383 14.8772C32.6453 14.8772 32.8523 15.7063 32.8523 15.8445C32.9903 16.259 32.7143 16.6044 32.7143 17.088C32.6453 17.9171 32.7833 18.8843 33.3354 19.5061C33.6114 19.8515 34.6466 21.0951 34.0945 21.5096C33.6804 21.026 33.4044 20.4733 33.0593 19.9897C33.0593 20.5424 33.1974 21.1642 32.9213 21.5787C32.6453 21.4405 32.7833 20.5424 32.7833 20.3351C32.7833 19.5752 32.3002 18.9534 31.8862 18.3316C31.7482 19.3679 32.5763 21.3024 31.6101 22.0623C30.989 22.615 30.1609 21.3715 29.9539 21.8551C29.7468 22.2005 29.2638 23.4441 28.7117 23.3059C28.0216 23.1677 27.5385 21.2333 28.2976 21.026C28.3666 21.3715 28.3666 21.8551 28.5737 22.2696Z" fill="white"/>
<path id="Vector_4" d="M13.8054 17.5716C14.2885 17.6407 13.8054 15.9826 13.8054 15.7062C13.8745 15.4299 14.0815 15.2917 14.2195 15.5681C14.4265 15.9826 14.4265 16.4662 14.4955 16.8807C14.4955 17.2262 14.5646 17.6407 14.2885 17.917C13.8745 18.3316 13.3224 18.1243 13.1153 17.5716C12.1492 18.4006 13.3914 19.8515 12.5633 20.6805C12.4252 19.9206 12.5633 19.0915 12.2872 18.4006C12.1492 18.0552 11.5281 18.1934 11.4591 17.5716C11.4591 17.2952 11.6661 16.5353 11.3901 16.328C11.2521 16.6044 11.114 18.7461 10.4239 18.1243C9.87185 17.7098 10.0099 16.328 10.2169 15.7753C10.631 15.9826 10.1479 17.5025 10.7 17.5716C10.976 17.6407 11.045 16.4662 11.114 16.2589C11.3211 15.9135 12.0112 14.9463 11.8732 15.9135C11.8041 16.328 11.4591 17.6407 12.2872 17.5716C12.2182 16.8807 12.1492 16.1898 12.0112 15.499C11.9422 15.1535 12.1492 14.4627 12.4252 15.0844C12.6323 15.499 12.4942 15.7062 12.4252 16.1208C12.3562 16.6044 12.5633 17.088 12.6323 17.5025C13.0463 17.1571 12.4942 15.8444 12.8393 15.2917C13.6674 15.7753 12.7703 17.4334 13.8054 17.5716ZM22.7078 17.7098C22.3627 18.1934 21.7416 17.7789 21.4656 17.4334C21.1206 17.8479 20.4304 18.5388 19.8784 17.9861C19.4643 17.5716 19.9474 16.8116 19.6023 16.4662C19.3953 16.8116 19.0502 18.4697 18.4291 17.7098C18.0841 17.2952 17.601 15.8444 18.3601 15.499C18.2911 16.0517 18.1531 16.6735 18.4982 17.1571C18.8432 17.6407 19.1883 16.3971 19.3263 16.1208C19.5333 15.6371 20.2234 14.8081 20.0854 15.8444C20.0164 16.2589 19.8784 17.2262 20.2924 17.5025C20.5685 17.7098 20.9135 17.3643 21.0515 17.1571C21.3276 16.8116 21.1896 16.2589 21.1206 15.8444C21.0515 15.499 20.9135 15.0844 21.1206 14.739C21.3966 14.3245 21.6036 15.2917 21.6036 15.499C21.6036 15.7062 21.8797 17.8479 22.3627 17.1571C22.8458 16.5353 21.5346 15.1535 22.4317 14.8081C22.7768 14.6699 23.3979 16.0517 22.7078 15.6371C22.9148 16.2589 23.1909 17.1571 22.7078 17.7098ZM25.3302 18.5388C25.3992 19.4369 26.1583 21.9241 25.1232 22.4768C24.9851 22.2004 25.1232 21.7859 25.1922 21.4405C25.2612 20.8187 25.1232 20.1969 25.0541 19.6442C24.9161 18.3316 24.7781 17.3643 23.881 16.328C23.6739 16.0517 23.3289 15.8444 23.2599 15.4299C23.2599 15.2917 23.1909 14.6699 23.4669 14.8081C23.6739 14.8772 24.8471 15.9135 24.226 15.9135C24.295 16.0517 24.5711 16.6044 24.7091 16.6044C24.7091 16.2589 24.295 15.2226 24.7091 15.0154C25.0541 14.8081 25.4682 16.1208 25.3302 16.3971C25.1922 16.7425 25.1922 16.9498 25.3302 17.4334C25.4682 17.9861 25.8133 18.4697 26.0893 18.9533C26.5034 19.6442 27.3315 20.6114 27.1245 21.5096C26.7104 21.3023 26.4344 20.3351 26.2273 19.9206C26.0893 19.5751 25.9513 19.2297 25.7442 18.9533C25.6752 18.8843 25.2612 18.3316 25.3302 18.677V18.5388ZM34.9226 19.8515C34.9916 21.3023 34.5086 23.1677 32.7143 23.1677C32.7143 22.7531 33.6114 22.3386 33.8875 22.1314C34.5776 21.5787 34.5086 20.5423 34.4396 19.7824C34.3705 18.7461 34.3015 17.7098 34.0945 16.6735C34.0255 16.0517 33.6804 15.1535 34.2325 14.739C34.5776 15.0154 35.0607 15.7753 34.8536 16.0517C34.5086 16.4662 34.8536 19.5751 34.9226 19.8515Z" fill="white"/>
<path id="Vector_5" d="M26.0895 22.9604C27.8838 21.9241 27.3317 19.7133 27.1937 17.9861C27.1247 17.5025 27.1247 17.0189 27.0557 16.5353C27.0557 16.1898 26.7796 15.7062 26.9176 15.3608C27.2627 14.4627 27.5387 15.2917 27.6078 15.8444C27.6768 16.1898 27.4007 16.2589 27.4697 16.5353C27.5387 17.088 27.5387 17.6407 27.6078 18.1934C27.6768 19.0915 27.8148 19.9896 27.7458 20.8187C27.6077 22.1314 26.9176 23.5822 25.3304 23.3058C25.3994 23.1677 25.8825 23.0986 26.0895 22.9604ZM28.988 19.506C29.057 20.1969 29.333 21.4405 28.988 22.0623C28.7119 22.4768 28.7119 21.7859 28.6429 21.7168C28.5739 21.1641 28.5739 20.6114 28.5739 19.9896C28.4359 18.4697 27.9528 16.9498 27.9528 15.499C27.9528 13.6336 29.54 16.5353 28.6429 16.3971C28.7119 17.4334 28.8499 18.4697 28.988 19.506ZM17.7393 15.9826C17.8773 16.328 16.152 17.2262 15.945 17.2262C15.876 16.8807 16.7041 16.3971 16.9111 16.2589C17.1182 16.0517 17.2562 16.0517 17.1872 15.7753C17.0492 15.499 17.1182 15.0154 17.4632 14.8772C18.1533 14.6699 17.6702 15.7062 17.7393 15.9826ZM10.6312 22.1314C10.6312 22.6841 10.8382 22.4077 11.1143 22.2695C11.2523 22.5459 10.9072 23.3058 10.5622 22.9604C10.0791 22.4768 10.4932 21.3714 10.7002 20.8878C10.8382 21.2332 10.5622 21.7859 10.6312 22.1314ZM30.0921 17.8479C30.1611 17.5716 29.9541 17.2952 30.1611 17.0189C30.4372 16.6734 30.7132 17.088 30.5752 17.2262C30.4372 17.3643 30.2301 17.088 30.2301 17.5025C30.2301 17.7098 30.3682 18.1243 30.1611 18.3315C30.0231 18.2625 29.402 17.3643 29.471 17.2262C29.7471 16.9498 30.0231 17.7788 30.0921 17.8479ZM12.0804 19.0224C11.9424 19.2988 10.3551 20.1969 10.2861 19.9896C10.2861 19.7824 12.2874 18.6079 12.0804 19.0224ZM23.8122 22.5459C23.6051 23.1677 24.5023 22.615 24.7093 22.5459C24.4333 23.0295 23.4671 23.444 23.6051 22.5459C23.5361 22.5459 23.3981 22.615 23.3291 22.615C23.1911 22.4768 24.0192 21.9241 23.8122 22.5459ZM31.3343 22.3386C31.5413 22.3386 31.8864 22.9604 31.6794 23.0986C31.5413 23.2368 30.9202 23.3058 31.2653 23.0295C31.6794 22.615 31.3343 22.3386 31.3343 22.3386ZM21.6038 18.8152C21.6729 18.677 21.6729 18.4697 21.7419 18.3315C22.432 18.8842 20.6377 19.7824 20.9827 18.4697C21.1208 18.6079 21.1208 18.8152 21.2588 18.8842C21.2588 18.7461 21.3278 18.5388 21.3278 18.4006C21.4658 18.5388 21.4658 18.7461 21.6038 18.8152ZM29.6781 19.7133C29.471 19.4369 30.7132 18.677 30.9202 18.5388C31.0583 18.7461 30.0921 19.506 29.6781 19.7133ZM33.5426 16.9498C33.4046 16.5353 32.9906 15.7062 33.4046 15.3608C33.6807 15.5681 33.8187 16.6044 33.5426 16.9498ZM26.0205 15.5681C25.9515 15.4299 25.7445 15.2917 25.7445 15.0844C25.8135 14.8081 25.9515 14.8772 26.0895 15.0154C26.2966 15.2917 26.4346 16.0517 26.0895 16.2589C26.0895 16.0517 26.1585 15.7753 26.0205 15.5681ZM17.6012 17.4334C17.6012 17.8479 16.9111 18.2625 16.8421 17.7098C16.7731 17.5025 17.1182 16.7425 17.2562 16.9498C16.9801 17.5716 16.9801 17.7788 17.6012 17.4334Z" fill="white"/>
<path id="Vector_6" d="M26.2277 16.6734C26.5038 17.3643 26.3658 16.7425 26.6418 16.6043C27.1249 17.5025 25.6066 17.2952 25.9517 16.7425C26.0207 16.8116 26.0897 16.9498 26.0897 17.0188C26.1587 16.9498 26.1587 16.8116 26.2277 16.6734ZM30.6444 19.8514C30.2994 19.5751 30.7134 19.2296 30.9205 19.5751C31.0585 19.7823 31.0585 20.335 30.7824 20.4732C30.7824 20.2659 30.8514 19.9896 30.6444 19.8514ZM16.4973 21.3713C16.4973 21.2332 16.4283 20.1969 16.6353 20.335C16.9113 20.4732 16.8423 21.2332 16.4973 21.3713ZM13.5988 14.8771C13.6678 15.0844 13.7369 15.3607 13.8749 15.0153C14.427 15.6371 12.4947 15.4298 13.1848 14.808C13.1848 14.8771 13.3228 15.2917 13.5988 14.8771ZM20.6379 16.3971C20.6379 16.1207 20.2238 14.9462 20.5689 14.9462C20.983 15.0153 20.9139 16.0516 20.6379 16.3971ZM10.9764 15.7753C10.7694 15.7062 11.1145 15.3607 10.9764 15.0844C10.8384 15.1535 10.7004 14.9462 10.8384 14.808C11.3905 14.3935 11.1835 15.7753 10.9764 15.7753ZM28.8501 29.8L28.5741 28.971L28.2981 29.8H13.1848C13.1848 29.8 13.3228 31.0436 14.841 31.0436H28.229V32.0108H31.8866V29.8H28.8501ZM31.1965 31.4581H28.7121V30.7672H31.1965V31.4581Z" fill="white"/>
</g>
</g>
</svg>
