<svg width="45" height="45" viewBox="0 0 45 45" fill="none" xmlns="http://www.w3.org/2000/svg">
<g id="sudan">
<path id="Vector" d="M42.1875 29.5312C38.3203 29.5312 35.1562 26.3672 35.1562 22.5H7.59375V37.4063C11.3906 41.2031 16.6641 43.5938 22.5 43.5938C31.7109 43.5938 39.5156 37.6875 42.3984 29.5312H42.1875Z" fill="black"/>
<path id="Vector_2" d="M42.1875 15.4688H42.3984C39.5156 7.3125 31.7109 1.40625 22.5 1.40625C16.6641 1.40625 11.3906 3.79688 7.59375 7.59375V22.5H35.1562C35.1562 18.6328 38.3203 15.4688 42.1875 15.4688Z" fill="#E2083A"/>
<path id="Vector_3" d="M42.3984 15.4688H7.59375V29.5312H42.3984C43.1719 27.3516 43.5938 24.9609 43.5938 22.5C43.5938 20.0391 43.1719 17.6484 42.3984 15.4688Z" fill="#F9F9F9"/>
<path id="Vector_4" d="M7.59375 7.59375C3.79688 11.3906 1.40625 16.6641 1.40625 22.5C1.40625 28.3359 3.79688 33.6094 7.59375 37.4063L22.5 22.5L7.59375 7.59375Z" fill="#08642A"/>
</g>
</svg>
